solid CATIA STL
  facet normal  0.000000e+000  0.000000e+000 -1.000000e+000
    outer loop
      vertex -1.250000e+001 -9.500000e+001  0.000000e+000
      vertex -2.000000e+001 -9.500000e+001  0.000000e+000
      vertex -1.250000e+001 -9.200000e+001  0.000000e+000
    endloop
  endfacet
  facet normal  -0.000000e+000  0.000000e+000 -9.999999e-001
    outer loop
      vertex -1.250000e+001 -9.200000e+001  0.000000e+000
      vertex -2.000000e+001 -9.500000e+001  0.000000e+000
      vertex -2.000000e+001 -4.800000e+001  0.000000e+000
    endloop
  endfacet
  facet normal  0.000000e+000  0.000000e+000 -1.000000e+000
    outer loop
      vertex -1.250000e+001 -9.200000e+001  0.000000e+000
      vertex -2.000000e+001 -4.800000e+001  0.000000e+000
      vertex  1.250000e+001 -9.200000e+001  0.000000e+000
    endloop
  endfacet
  facet normal  0.000000e+000  0.000000e+000 -9.999999e-001
    outer loop
      vertex  1.250000e+001 -9.200000e+001  0.000000e+000
      vertex -2.000000e+001 -4.800000e+001  0.000000e+000
      vertex  2.000000e+001 -4.800000e+001  0.000000e+000
    endloop
  endfacet
  facet normal  0.000000e+000  0.000000e+000 -1.000000e+000
    outer loop
      vertex  1.250000e+001 -9.200000e+001  0.000000e+000
      vertex  2.000000e+001 -4.800000e+001  0.000000e+000
      vertex  1.250000e+001 -9.500000e+001  0.000000e+000
    endloop
  endfacet
  facet normal  0.000000e+000  0.000000e+000 -9.999999e-001
    outer loop
      vertex  1.250000e+001 -9.500000e+001  0.000000e+000
      vertex  2.000000e+001 -4.800000e+001  0.000000e+000
      vertex  2.000000e+001 -9.500000e+001  0.000000e+000
    endloop
  endfacet
  facet normal  0.000000e+000 -1.000000e+000  0.000000e+000
    outer loop
      vertex  1.250000e+001 -9.500000e+001  4.000000e+001
      vertex  1.250000e+001 -9.500000e+001  0.000000e+000
      vertex  2.000000e+001 -9.500000e+001  4.000000e+001
    endloop
  endfacet
  facet normal  0.000000e+000 -1.000000e+000  -0.000000e+000
    outer loop
      vertex  2.000000e+001 -9.500000e+001  4.000000e+001
      vertex  1.250000e+001 -9.500000e+001  0.000000e+000
      vertex  2.000000e+001 -9.500000e+001  0.000000e+000
    endloop
  endfacet
  facet normal  0.000000e+000 -1.000000e+000  0.000000e+000
    outer loop
      vertex -2.000000e+001 -9.500000e+001  4.000000e+001
      vertex -2.000000e+001 -9.500000e+001  0.000000e+000
      vertex -1.250000e+001 -9.500000e+001  4.000000e+001
    endloop
  endfacet
  facet normal  0.000000e+000 -1.000000e+000  -0.000000e+000
    outer loop
      vertex -1.250000e+001 -9.500000e+001  4.000000e+001
      vertex -2.000000e+001 -9.500000e+001  0.000000e+000
      vertex -1.250000e+001 -9.500000e+001  0.000000e+000
    endloop
  endfacet
  facet normal  0.000000e+000  0.000000e+000  1.000000e+000
    outer loop
      vertex -2.000000e+001 -9.500000e+001  4.000000e+001
      vertex -1.250000e+001 -9.500000e+001  4.000000e+001
      vertex -2.000000e+001 -8.300000e+001  4.000000e+001
    endloop
  endfacet
  facet normal  0.000000e+000  0.000000e+000  1.000000e+000
    outer loop
      vertex -2.000000e+001 -8.300000e+001  4.000000e+001
      vertex -1.250000e+001 -9.500000e+001  4.000000e+001
      vertex -1.250000e+001 -9.200000e+001  4.000000e+001
    endloop
  endfacet
  facet normal  0.000000e+000  -0.000000e+000  1.000000e+000
    outer loop
      vertex -2.000000e+001 -8.300000e+001  4.000000e+001
      vertex -1.250000e+001 -9.200000e+001  4.000000e+001
      vertex  2.000000e+001 -8.300000e+001  4.000000e+001
    endloop
  endfacet
  facet normal  0.000000e+000  0.000000e+000  1.000000e+000
    outer loop
      vertex  2.000000e+001 -8.300000e+001  4.000000e+001
      vertex -1.250000e+001 -9.200000e+001  4.000000e+001
      vertex  1.250000e+001 -9.200000e+001  4.000000e+001
    endloop
  endfacet
  facet normal  -0.000000e+000  0.000000e+000  1.000000e+000
    outer loop
      vertex  2.000000e+001 -8.300000e+001  4.000000e+001
      vertex  1.250000e+001 -9.200000e+001  4.000000e+001
      vertex  2.000000e+001 -9.500000e+001  4.000000e+001
    endloop
  endfacet
  facet normal  0.000000e+000  0.000000e+000  1.000000e+000
    outer loop
      vertex  2.000000e+001 -9.500000e+001  4.000000e+001
      vertex  1.250000e+001 -9.200000e+001  4.000000e+001
      vertex  1.250000e+001 -9.500000e+001  4.000000e+001
    endloop
  endfacet
  facet normal  0.000000e+000 -1.000000e+000  0.000000e+000
    outer loop
      vertex -1.250000e+001 -9.200000e+001  0.000000e+000
      vertex  1.250000e+001 -9.200000e+001  0.000000e+000
      vertex -1.250000e+001 -9.200000e+001  4.000000e+001
    endloop
  endfacet
  facet normal  0.000000e+000 -1.000000e+000  0.000000e+000
    outer loop
      vertex -1.250000e+001 -9.200000e+001  4.000000e+001
      vertex  1.250000e+001 -9.200000e+001  0.000000e+000
      vertex  1.250000e+001 -9.200000e+001  4.000000e+001
    endloop
  endfacet
  facet normal -1.000000e+000  0.000000e+000  0.000000e+000
    outer loop
      vertex  1.250000e+001 -9.200000e+001  0.000000e+000
      vertex  1.250000e+001 -9.500000e+001  0.000000e+000
      vertex  1.250000e+001 -9.200000e+001  4.000000e+001
    endloop
  endfacet
  facet normal -1.000000e+000  -0.000000e+000  0.000000e+000
    outer loop
      vertex  1.250000e+001 -9.200000e+001  4.000000e+001
      vertex  1.250000e+001 -9.500000e+001  0.000000e+000
      vertex  1.250000e+001 -9.500000e+001  4.000000e+001
    endloop
  endfacet
  facet normal  1.000000e+000  -0.000000e+000  0.000000e+000
    outer loop
      vertex -1.250000e+001 -9.200000e+001  4.000000e+001
      vertex -1.250000e+001 -9.500000e+001  4.000000e+001
      vertex -1.250000e+001 -9.200000e+001  0.000000e+000
    endloop
  endfacet
  facet normal  1.000000e+000  0.000000e+000  0.000000e+000
    outer loop
      vertex -1.250000e+001 -9.200000e+001  0.000000e+000
      vertex -1.250000e+001 -9.500000e+001  4.000000e+001
      vertex -1.250000e+001 -9.500000e+001  0.000000e+000
    endloop
  endfacet
  facet normal  -0.000000e+000  1.000000e+000  0.000000e+000
    outer loop
      vertex  1.200000e+001  0.000000e+000  2.600000e+001
      vertex  8.000000e+000  0.000000e+000  3.200000e+001
      vertex  2.000000e+001  0.000000e+000  3.200000e+001
    endloop
  endfacet
  facet normal  0.000000e+000  1.000000e+000  0.000000e+000
    outer loop
      vertex  1.200000e+001  0.000000e+000  2.600000e+001
      vertex  2.000000e+001  0.000000e+000  3.200000e+001
      vertex  2.000000e+001  0.000000e+000  0.000000e+000
    endloop
  endfacet
  facet normal  0.000000e+000  1.000000e+000  0.000000e+000
    outer loop
      vertex  1.200000e+001  0.000000e+000  2.600000e+001
      vertex  2.000000e+001  0.000000e+000  0.000000e+000
      vertex  6.000000e+000  0.000000e+000  0.000000e+000
    endloop
  endfacet
  facet normal  0.000000e+000  1.000000e+000  0.000000e+000
    outer loop
      vertex  1.200000e+001  0.000000e+000  2.600000e+001
      vertex  6.000000e+000  0.000000e+000  0.000000e+000
      vertex  6.000000e+000  0.000000e+000  2.600000e+001
    endloop
  endfacet
  facet normal  0.000000e+000  1.000000e+000  0.000000e+000
    outer loop
      vertex -2.000000e+001  0.000000e+000  3.200000e+001
      vertex -8.000000e+000  0.000000e+000  3.200000e+001
      vertex -1.200000e+001  0.000000e+000  2.600000e+001
    endloop
  endfacet
  facet normal  0.000000e+000  1.000000e+000  -0.000000e+000
    outer loop
      vertex -6.000000e+000  0.000000e+000  2.600000e+001
      vertex -6.000000e+000  0.000000e+000  0.000000e+000
      vertex -1.200000e+001  0.000000e+000  2.600000e+001
    endloop
  endfacet
  facet normal  0.000000e+000  1.000000e+000  0.000000e+000
    outer loop
      vertex -1.200000e+001  0.000000e+000  2.600000e+001
      vertex -6.000000e+000  0.000000e+000  0.000000e+000
      vertex -2.000000e+001  0.000000e+000  0.000000e+000
    endloop
  endfacet
  facet normal  0.000000e+000  1.000000e+000  0.000000e+000
    outer loop
      vertex -1.200000e+001  0.000000e+000  2.600000e+001
      vertex -2.000000e+001  0.000000e+000  0.000000e+000
      vertex -2.000000e+001  0.000000e+000  3.200000e+001
    endloop
  endfacet
  facet normal  -0.000000e+000  0.000000e+000  1.000000e+000
    outer loop
      vertex -6.000000e+000  0.000000e+000  2.600000e+001
      vertex -1.200000e+001  0.000000e+000  2.600000e+001
      vertex -6.000000e+000 -4.000000e+000  2.600000e+001
    endloop
  endfacet
  facet normal  0.000000e+000  0.000000e+000  1.000000e+000
    outer loop
      vertex -6.000000e+000 -4.000000e+000  2.600000e+001
      vertex -1.200000e+001  0.000000e+000  2.600000e+001
      vertex -1.200000e+001 -5.900000e+001  2.600000e+001
    endloop
  endfacet
  facet normal  0.000000e+000  0.000000e+000  9.999999e-001
    outer loop
      vertex -6.000000e+000 -4.000000e+000  2.600000e+001
      vertex -1.200000e+001 -5.900000e+001  2.600000e+001
      vertex  6.000000e+000 -4.000000e+000  2.600000e+001
    endloop
  endfacet
  facet normal  0.000000e+000  0.000000e+000  9.999999e-001
    outer loop
      vertex  6.000000e+000 -4.000000e+000  2.600000e+001
      vertex -1.200000e+001 -5.900000e+001  2.600000e+001
      vertex  1.200000e+001 -5.900000e+001  2.600000e+001
    endloop
  endfacet
  facet normal  0.000000e+000  0.000000e+000  1.000000e+000
    outer loop
      vertex  6.000000e+000 -4.000000e+000  2.600000e+001
      vertex  1.200000e+001 -5.900000e+001  2.600000e+001
      vertex  6.000000e+000  0.000000e+000  2.600000e+001
    endloop
  endfacet
  facet normal  -0.000000e+000  0.000000e+000  1.000000e+000
    outer loop
      vertex  6.000000e+000  0.000000e+000  2.600000e+001
      vertex  1.200000e+001 -5.900000e+001  2.600000e+001
      vertex  1.200000e+001  0.000000e+000  2.600000e+001
    endloop
  endfacet
  facet normal  -0.000000e+000  0.000000e+000 -1.000000e+000
    outer loop
      vertex -2.000000e+001  0.000000e+000  0.000000e+000
      vertex -6.000000e+000  0.000000e+000  0.000000e+000
      vertex -2.000000e+001 -1.600000e+001  0.000000e+000
    endloop
  endfacet
  facet normal  0.000000e+000  0.000000e+000 -1.000000e+000
    outer loop
      vertex -2.000000e+001 -1.600000e+001  0.000000e+000
      vertex -6.000000e+000  0.000000e+000  0.000000e+000
      vertex -6.000000e+000 -4.000000e+000  0.000000e+000
    endloop
  endfacet
  facet normal  0.000000e+000  -0.000000e+000 -1.000000e+000
    outer loop
      vertex -2.000000e+001 -1.600000e+001  0.000000e+000
      vertex -6.000000e+000 -4.000000e+000  0.000000e+000
      vertex  2.000000e+001 -1.600000e+001  0.000000e+000
    endloop
  endfacet
  facet normal  0.000000e+000  0.000000e+000 -1.000000e+000
    outer loop
      vertex  2.000000e+001 -1.600000e+001  0.000000e+000
      vertex -6.000000e+000 -4.000000e+000  0.000000e+000
      vertex  6.000000e+000 -4.000000e+000  0.000000e+000
    endloop
  endfacet
  facet normal  0.000000e+000  0.000000e+000 -1.000000e+000
    outer loop
      vertex  2.000000e+001 -1.600000e+001  0.000000e+000
      vertex  6.000000e+000 -4.000000e+000  0.000000e+000
      vertex  2.000000e+001  0.000000e+000  0.000000e+000
    endloop
  endfacet
  facet normal  -0.000000e+000  0.000000e+000 -1.000000e+000
    outer loop
      vertex  2.000000e+001  0.000000e+000  0.000000e+000
      vertex  6.000000e+000 -4.000000e+000  0.000000e+000
      vertex  6.000000e+000  0.000000e+000  0.000000e+000
    endloop
  endfacet
  facet normal  0.000000e+000  1.000000e+000  0.000000e+000
    outer loop
      vertex  6.000000e+000 -4.000000e+000  0.000000e+000
      vertex -6.000000e+000 -4.000000e+000  0.000000e+000
      vertex  6.000000e+000 -4.000000e+000  2.600000e+001
    endloop
  endfacet
  facet normal  0.000000e+000  1.000000e+000  0.000000e+000
    outer loop
      vertex  6.000000e+000 -4.000000e+000  2.600000e+001
      vertex -6.000000e+000 -4.000000e+000  0.000000e+000
      vertex -6.000000e+000 -4.000000e+000  2.600000e+001
    endloop
  endfacet
  facet normal  1.000000e+000  0.000000e+000  0.000000e+000
    outer loop
      vertex -6.000000e+000 -4.000000e+000  0.000000e+000
      vertex -6.000000e+000  0.000000e+000  0.000000e+000
      vertex -6.000000e+000 -4.000000e+000  2.600000e+001
    endloop
  endfacet
  facet normal  1.000000e+000  -0.000000e+000  0.000000e+000
    outer loop
      vertex -6.000000e+000 -4.000000e+000  2.600000e+001
      vertex -6.000000e+000  0.000000e+000  0.000000e+000
      vertex -6.000000e+000  0.000000e+000  2.600000e+001
    endloop
  endfacet
  facet normal -1.000000e+000  -0.000000e+000  0.000000e+000
    outer loop
      vertex  6.000000e+000 -4.000000e+000  2.600000e+001
      vertex  6.000000e+000  0.000000e+000  2.600000e+001
      vertex  6.000000e+000 -4.000000e+000  0.000000e+000
    endloop
  endfacet
  facet normal -1.000000e+000  0.000000e+000  0.000000e+000
    outer loop
      vertex  6.000000e+000 -4.000000e+000  0.000000e+000
      vertex  6.000000e+000  0.000000e+000  2.600000e+001
      vertex  6.000000e+000  0.000000e+000  0.000000e+000
    endloop
  endfacet
  facet normal  -0.000000e+000  0.000000e+000  1.000000e+000
    outer loop
      vertex  2.000000e+001  0.000000e+000  3.200000e+001
      vertex  8.000000e+000  0.000000e+000  3.200000e+001
      vertex  2.000000e+001 -5.600000e+001  3.200000e+001
    endloop
  endfacet
  facet normal  0.000000e+000  0.000000e+000  1.000000e+000
    outer loop
      vertex  2.000000e+001 -5.600000e+001  3.200000e+001
      vertex  8.000000e+000  0.000000e+000  3.200000e+001
      vertex  8.000000e+000 -5.600000e+001  3.200000e+001
    endloop
  endfacet
  facet normal  -0.000000e+000  0.000000e+000  1.000000e+000
    outer loop
      vertex -8.000000e+000  0.000000e+000  3.200000e+001
      vertex -2.000000e+001  0.000000e+000  3.200000e+001
      vertex -8.000000e+000 -5.600000e+001  3.200000e+001
    endloop
  endfacet
  facet normal  0.000000e+000  0.000000e+000  1.000000e+000
    outer loop
      vertex -8.000000e+000 -5.600000e+001  3.200000e+001
      vertex -2.000000e+001  0.000000e+000  3.200000e+001
      vertex -2.000000e+001 -5.600000e+001  3.200000e+001
    endloop
  endfacet
  facet normal  0.000000e+000 -8.944272e-001  4.472136e-001
    outer loop
      vertex  2.000000e+001 -5.600000e+001  3.200000e+001
      vertex  8.000000e+000 -5.600000e+001  3.200000e+001
      vertex  2.000000e+001 -6.200000e+001  2.000000e+001
    endloop
  endfacet
  facet normal  0.000000e+000 -8.944272e-001  4.472136e-001
    outer loop
      vertex  2.000000e+001 -6.200000e+001  2.000000e+001
      vertex  8.000000e+000 -5.600000e+001  3.200000e+001
      vertex  1.200000e+001 -5.900000e+001  2.600000e+001
    endloop
  endfacet
  facet normal  0.000000e+000 -8.944272e-001  4.472136e-001
    outer loop
      vertex  2.000000e+001 -6.200000e+001  2.000000e+001
      vertex  1.200000e+001 -5.900000e+001  2.600000e+001
      vertex -2.000000e+001 -6.200000e+001  2.000000e+001
    endloop
  endfacet
  facet normal  0.000000e+000 -8.944272e-001  4.472136e-001
    outer loop
      vertex -2.000000e+001 -6.200000e+001  2.000000e+001
      vertex  1.200000e+001 -5.900000e+001  2.600000e+001
      vertex -1.200000e+001 -5.900000e+001  2.600000e+001
    endloop
  endfacet
  facet normal  0.000000e+000 -8.944272e-001  4.472136e-001
    outer loop
      vertex -2.000000e+001 -6.200000e+001  2.000000e+001
      vertex -1.200000e+001 -5.900000e+001  2.600000e+001
      vertex -2.000000e+001 -5.600000e+001  3.200000e+001
    endloop
  endfacet
  facet normal  0.000000e+000 -8.944272e-001  4.472136e-001
    outer loop
      vertex -2.000000e+001 -5.600000e+001  3.200000e+001
      vertex -1.200000e+001 -5.900000e+001  2.600000e+001
      vertex -8.000000e+000 -5.600000e+001  3.200000e+001
    endloop
  endfacet
  facet normal  8.320503e-001  0.000000e+000 -5.547002e-001
    outer loop
      vertex -1.200000e+001  0.000000e+000  2.600000e+001
      vertex -8.000000e+000  0.000000e+000  3.200000e+001
      vertex -1.200000e+001 -5.900000e+001  2.600000e+001
    endloop
  endfacet
  facet normal  8.320503e-001  0.000000e+000 -5.547002e-001
    outer loop
      vertex -1.200000e+001 -5.900000e+001  2.600000e+001
      vertex -8.000000e+000  0.000000e+000  3.200000e+001
      vertex -8.000000e+000 -5.600000e+001  3.200000e+001
    endloop
  endfacet
  facet normal -8.320503e-001  0.000000e+000 -5.547002e-001
    outer loop
      vertex  8.000000e+000  0.000000e+000  3.200000e+001
      vertex  1.200000e+001  0.000000e+000  2.600000e+001
      vertex  8.000000e+000 -5.600000e+001  3.200000e+001
    endloop
  endfacet
  facet normal -8.320503e-001  0.000000e+000 -5.547002e-001
    outer loop
      vertex  8.000000e+000 -5.600000e+001  3.200000e+001
      vertex  1.200000e+001  0.000000e+000  2.600000e+001
      vertex  1.200000e+001 -5.900000e+001  2.600000e+001
    endloop
  endfacet
  facet normal  1.000000e+000  -0.000000e+000  0.000000e+000
    outer loop
      vertex  2.000000e+001  0.000000e+000  3.200000e+001
      vertex  2.000000e+001 -5.600000e+001  3.200000e+001
      vertex  2.000000e+001 -1.600000e+001  6.000000e+000
    endloop
  endfacet
  facet normal  9.999999e-001  0.000000e+000  0.000000e+000
    outer loop
      vertex  2.000000e+001 -1.600000e+001  6.000000e+000
      vertex  2.000000e+001 -5.600000e+001  3.200000e+001
      vertex  2.000000e+001 -6.200000e+001  2.000000e+001
    endloop
  endfacet
  facet normal  1.000000e+000  0.000000e+000  0.000000e+000
    outer loop
      vertex  2.000000e+001 -1.600000e+001  6.000000e+000
      vertex  2.000000e+001 -6.200000e+001  2.000000e+001
      vertex  2.000000e+001 -4.800000e+001  6.000000e+000
    endloop
  endfacet
  facet normal  1.000000e+000  0.000000e+000  0.000000e+000
    outer loop
      vertex  2.000000e+001 -4.800000e+001  6.000000e+000
      vertex  2.000000e+001 -6.200000e+001  2.000000e+001
      vertex  2.000000e+001 -7.400000e+001  2.000000e+001
    endloop
  endfacet
  facet normal  1.000000e+000  0.000000e+000  0.000000e+000
    outer loop
      vertex  2.000000e+001 -4.800000e+001  6.000000e+000
      vertex  2.000000e+001 -7.400000e+001  2.000000e+001
      vertex  2.000000e+001 -4.800000e+001  0.000000e+000
    endloop
  endfacet
  facet normal  9.999999e-001  0.000000e+000  0.000000e+000
    outer loop
      vertex  2.000000e+001 -4.800000e+001  0.000000e+000
      vertex  2.000000e+001 -7.400000e+001  2.000000e+001
      vertex  2.000000e+001 -9.500000e+001  0.000000e+000
    endloop
  endfacet
  facet normal  1.000000e+000  0.000000e+000  0.000000e+000
    outer loop
      vertex  2.000000e+001 -1.600000e+001  0.000000e+000
      vertex  2.000000e+001  0.000000e+000  0.000000e+000
      vertex  2.000000e+001 -1.600000e+001  6.000000e+000
    endloop
  endfacet
  facet normal  1.000000e+000  -0.000000e+000  0.000000e+000
    outer loop
      vertex  2.000000e+001 -1.600000e+001  6.000000e+000
      vertex  2.000000e+001  0.000000e+000  0.000000e+000
      vertex  2.000000e+001  0.000000e+000  3.200000e+001
    endloop
  endfacet
  facet normal  1.000000e+000  0.000000e+000  0.000000e+000
    outer loop
      vertex  2.000000e+001 -9.500000e+001  0.000000e+000
      vertex  2.000000e+001 -7.400000e+001  2.000000e+001
      vertex  2.000000e+001 -9.500000e+001  4.000000e+001
    endloop
  endfacet
  facet normal  1.000000e+000  0.000000e+000  0.000000e+000
    outer loop
      vertex  2.000000e+001 -9.500000e+001  4.000000e+001
      vertex  2.000000e+001 -7.400000e+001  2.000000e+001
      vertex  2.000000e+001 -7.400000e+001  2.400000e+001
    endloop
  endfacet
  facet normal  1.000000e+000  0.000000e+000  0.000000e+000
    outer loop
      vertex  2.000000e+001 -9.500000e+001  4.000000e+001
      vertex  2.000000e+001 -7.400000e+001  2.400000e+001
      vertex  2.000000e+001 -8.300000e+001  4.000000e+001
    endloop
  endfacet
  facet normal -1.000000e+000  0.000000e+000  0.000000e+000
    outer loop
      vertex -2.000000e+001 -1.600000e+001  6.000000e+000
      vertex -2.000000e+001 -5.600000e+001  3.200000e+001
      vertex -2.000000e+001  0.000000e+000  3.200000e+001
    endloop
  endfacet
  facet normal -9.999999e-001  0.000000e+000  0.000000e+000
    outer loop
      vertex -2.000000e+001 -5.600000e+001  3.200000e+001
      vertex -2.000000e+001 -1.600000e+001  6.000000e+000
      vertex -2.000000e+001 -6.200000e+001  2.000000e+001
    endloop
  endfacet
  facet normal -1.000000e+000  0.000000e+000  0.000000e+000
    outer loop
      vertex -2.000000e+001 -6.200000e+001  2.000000e+001
      vertex -2.000000e+001 -1.600000e+001  6.000000e+000
      vertex -2.000000e+001 -4.800000e+001  6.000000e+000
    endloop
  endfacet
  facet normal -1.000000e+000  0.000000e+000  0.000000e+000
    outer loop
      vertex -2.000000e+001 -6.200000e+001  2.000000e+001
      vertex -2.000000e+001 -4.800000e+001  6.000000e+000
      vertex -2.000000e+001 -7.400000e+001  2.000000e+001
    endloop
  endfacet
  facet normal -1.000000e+000  0.000000e+000  0.000000e+000
    outer loop
      vertex -2.000000e+001 -7.400000e+001  2.000000e+001
      vertex -2.000000e+001 -4.800000e+001  6.000000e+000
      vertex -2.000000e+001 -4.800000e+001  0.000000e+000
    endloop
  endfacet
  facet normal -9.999999e-001  0.000000e+000  0.000000e+000
    outer loop
      vertex -2.000000e+001 -7.400000e+001  2.000000e+001
      vertex -2.000000e+001 -4.800000e+001  0.000000e+000
      vertex -2.000000e+001 -9.500000e+001  0.000000e+000
    endloop
  endfacet
  facet normal -1.000000e+000  0.000000e+000  0.000000e+000
    outer loop
      vertex -2.000000e+001 -1.600000e+001  0.000000e+000
      vertex -2.000000e+001 -1.600000e+001  6.000000e+000
      vertex -2.000000e+001  0.000000e+000  0.000000e+000
    endloop
  endfacet
  facet normal -1.000000e+000  0.000000e+000  0.000000e+000
    outer loop
      vertex -2.000000e+001  0.000000e+000  0.000000e+000
      vertex -2.000000e+001 -1.600000e+001  6.000000e+000
      vertex -2.000000e+001  0.000000e+000  3.200000e+001
    endloop
  endfacet
  facet normal -1.000000e+000  0.000000e+000  0.000000e+000
    outer loop
      vertex -2.000000e+001 -8.300000e+001  4.000000e+001
      vertex -2.000000e+001 -7.400000e+001  2.400000e+001
      vertex -2.000000e+001 -9.500000e+001  4.000000e+001
    endloop
  endfacet
  facet normal -1.000000e+000  0.000000e+000  0.000000e+000
    outer loop
      vertex -2.000000e+001 -9.500000e+001  4.000000e+001
      vertex -2.000000e+001 -7.400000e+001  2.400000e+001
      vertex -2.000000e+001 -7.400000e+001  2.000000e+001
    endloop
  endfacet
  facet normal -1.000000e+000  -0.000000e+000  0.000000e+000
    outer loop
      vertex -2.000000e+001 -9.500000e+001  4.000000e+001
      vertex -2.000000e+001 -7.400000e+001  2.000000e+001
      vertex -2.000000e+001 -9.500000e+001  0.000000e+000
    endloop
  endfacet
  facet normal  0.000000e+000 -1.000000e+000  0.000000e+000
    outer loop
      vertex -2.000000e+001 -1.600000e+001  6.000000e+000
      vertex -2.000000e+001 -1.600000e+001  0.000000e+000
      vertex  2.000000e+001 -1.600000e+001  6.000000e+000
    endloop
  endfacet
  facet normal  0.000000e+000 -1.000000e+000  -0.000000e+000
    outer loop
      vertex  2.000000e+001 -1.600000e+001  6.000000e+000
      vertex -2.000000e+001 -1.600000e+001  0.000000e+000
      vertex  2.000000e+001 -1.600000e+001  0.000000e+000
    endloop
  endfacet
  facet normal  0.000000e+000  0.000000e+000 -1.000000e+000
    outer loop
      vertex -2.000000e+001 -4.800000e+001  6.000000e+000
      vertex -2.000000e+001 -1.600000e+001  6.000000e+000
      vertex  2.000000e+001 -4.800000e+001  6.000000e+000
    endloop
  endfacet
  facet normal  0.000000e+000  0.000000e+000 -1.000000e+000
    outer loop
      vertex  2.000000e+001 -4.800000e+001  6.000000e+000
      vertex -2.000000e+001 -1.600000e+001  6.000000e+000
      vertex  2.000000e+001 -1.600000e+001  6.000000e+000
    endloop
  endfacet
  facet normal  0.000000e+000  1.000000e+000  0.000000e+000
    outer loop
      vertex -2.000000e+001 -4.800000e+001  0.000000e+000
      vertex -2.000000e+001 -4.800000e+001  6.000000e+000
      vertex  2.000000e+001 -4.800000e+001  0.000000e+000
    endloop
  endfacet
  facet normal  0.000000e+000  1.000000e+000  -0.000000e+000
    outer loop
      vertex  2.000000e+001 -4.800000e+001  0.000000e+000
      vertex -2.000000e+001 -4.800000e+001  6.000000e+000
      vertex  2.000000e+001 -4.800000e+001  6.000000e+000
    endloop
  endfacet
  facet normal  0.000000e+000  8.715755e-001  4.902613e-001
    outer loop
      vertex -2.000000e+001 -7.400000e+001  2.400000e+001
      vertex -2.000000e+001 -8.300000e+001  4.000000e+001
      vertex  2.000000e+001 -7.400000e+001  2.400000e+001
    endloop
  endfacet
  facet normal  0.000000e+000  8.715755e-001  4.902613e-001
    outer loop
      vertex  2.000000e+001 -7.400000e+001  2.400000e+001
      vertex -2.000000e+001 -8.300000e+001  4.000000e+001
      vertex  2.000000e+001 -8.300000e+001  4.000000e+001
    endloop
  endfacet
  facet normal  0.000000e+000  1.000000e+000  0.000000e+000
    outer loop
      vertex -2.000000e+001 -7.400000e+001  2.000000e+001
      vertex -2.000000e+001 -7.400000e+001  2.400000e+001
      vertex  2.000000e+001 -7.400000e+001  2.000000e+001
    endloop
  endfacet
  facet normal  0.000000e+000  1.000000e+000  -0.000000e+000
    outer loop
      vertex  2.000000e+001 -7.400000e+001  2.000000e+001
      vertex -2.000000e+001 -7.400000e+001  2.400000e+001
      vertex  2.000000e+001 -7.400000e+001  2.400000e+001
    endloop
  endfacet
  facet normal  0.000000e+000  0.000000e+000  1.000000e+000
    outer loop
      vertex -2.000000e+001 -6.200000e+001  2.000000e+001
      vertex -2.000000e+001 -7.400000e+001  2.000000e+001
      vertex  2.000000e+001 -6.200000e+001  2.000000e+001
    endloop
  endfacet
  facet normal  0.000000e+000  0.000000e+000  1.000000e+000
    outer loop
      vertex  2.000000e+001 -6.200000e+001  2.000000e+001
      vertex -2.000000e+001 -7.400000e+001  2.000000e+001
      vertex  2.000000e+001 -7.400000e+001  2.000000e+001
    endloop
  endfacet
endsolid CATIA STL
