solid CATIA STL
  facet normal  0.000000e+000 -1.000000e+000  0.000000e+000
    outer loop
      vertex -3.070721e-002 -5.000000e-001 -5.992137e-001
      vertex  3.970950e-002 -5.000000e-001 -7.239117e-001
      vertex  1.034003e-001 -5.000000e-001 -5.910231e-001
    endloop
  endfacet
  facet normal  0.000000e+000 -1.000000e+000  0.000000e+000
    outer loop
      vertex -3.070721e-002 -5.000000e-001 -5.992137e-001
      vertex -1.071957e-001 -5.000000e-001 -7.170314e-001
      vertex  3.970950e-002 -5.000000e-001 -7.239117e-001
    endloop
  endfacet
  facet normal  0.000000e+000 -1.000000e+000  0.000000e+000
    outer loop
      vertex  1.071957e-001 -5.000000e-001  7.170314e-001
      vertex  3.819101e-001 -5.000000e-001  6.162545e-001
      vertex  2.496901e-001 -5.000000e-001  6.806467e-001
    endloop
  endfacet
  facet normal  0.000000e+000 -1.000000e+000  -0.000000e+000
    outer loop
      vertex  3.819101e-001 -5.000000e-001  6.162545e-001
      vertex  1.071957e-001 -5.000000e-001  7.170314e-001
      vertex  3.070721e-002 -5.000000e-001  5.992137e-001
    endloop
  endfacet
  facet normal  0.000000e+000 -1.000000e+000  0.000000e+000
    outer loop
      vertex  3.070721e-002 -5.000000e-001  5.992137e-001
      vertex  1.071957e-001 -5.000000e-001  7.170314e-001
      vertex -3.970950e-002 -5.000000e-001  7.239117e-001
    endloop
  endfacet
  facet normal  0.000000e+000 -1.000000e+000  -0.000000e+000
    outer loop
      vertex  3.070721e-002 -5.000000e-001  5.992137e-001
      vertex -3.970950e-002 -5.000000e-001  7.239117e-001
      vertex -1.034003e-001 -5.000000e-001  5.910231e-001
    endloop
  endfacet
  facet normal  0.000000e+000 -1.000000e+000  0.000000e+000
    outer loop
      vertex -1.034003e-001 -5.000000e-001  5.910231e-001
      vertex -3.970950e-002 -5.000000e-001  7.239117e-001
      vertex -1.849808e-001 -5.000000e-001  7.010044e-001
    endloop
  endfacet
  facet normal  0.000000e+000 -1.000000e+000  -0.000000e+000
    outer loop
      vertex -1.034003e-001 -5.000000e-001  5.910231e-001
      vertex -1.849808e-001 -5.000000e-001  7.010044e-001
      vertex -3.226404e-001 -5.000000e-001  6.492520e-001
    endloop
  endfacet
  facet normal  0.000000e+000 -1.000000e+000  0.000000e+000
    outer loop
      vertex  3.976115e-001 -5.000000e-001  4.493385e-001
      vertex  4.876298e-001 -5.000000e-001  3.495958e-001
      vertex  5.944116e-001 -5.000000e-001  4.150902e-001
    endloop
  endfacet
  facet normal  0.000000e+000 -1.000000e+000  0.000000e+000
    outer loop
      vertex  5.944116e-001 -5.000000e-001  4.150902e-001
      vertex  4.876298e-001 -5.000000e-001  3.495958e-001
      vertex  5.531963e-001 -5.000000e-001  2.323228e-001
    endloop
  endfacet
  facet normal  0.000000e+000 -1.000000e+000  0.000000e+000
    outer loop
      vertex  5.944116e-001 -5.000000e-001  4.150902e-001
      vertex  5.531963e-001 -5.000000e-001  2.323228e-001
      vertex  6.659490e-001 -5.000000e-001  2.865955e-001
    endloop
  endfacet
  facet normal  0.000000e+000 -1.000000e+000  0.000000e+000
    outer loop
      vertex  6.659490e-001 -5.000000e-001  2.865955e-001
      vertex  5.531963e-001 -5.000000e-001  2.323228e-001
      vertex  5.910231e-001 -5.000000e-001  1.034003e-001
    endloop
  endfacet
  facet normal  0.000000e+000 -1.000000e+000  0.000000e+000
    outer loop
      vertex  6.659490e-001 -5.000000e-001  2.865955e-001
      vertex  5.910231e-001 -5.000000e-001  1.034003e-001
      vertex  7.100838e-001 -5.000000e-001  1.463079e-001
    endloop
  endfacet
  facet normal  0.000000e+000 -1.000000e+000  0.000000e+000
    outer loop
      vertex  7.100838e-001 -5.000000e-001  1.463079e-001
      vertex  5.910231e-001 -5.000000e-001  1.034003e-001
      vertex  5.992137e-001 -5.000000e-001 -3.070721e-002
    endloop
  endfacet
  facet normal  0.000000e+000 -1.000000e+000  0.000000e+000
    outer loop
      vertex  7.100838e-001 -5.000000e-001  1.463079e-001
      vertex  5.992137e-001 -5.000000e-001 -3.070721e-002
      vertex  7.250000e-001 -5.000000e-001  1.775679e-016
    endloop
  endfacet
  facet normal  0.000000e+000 -1.000000e+000  0.000000e+000
    outer loop
      vertex  7.250000e-001 -5.000000e-001  1.775679e-016
      vertex  5.992137e-001 -5.000000e-001 -3.070721e-002
      vertex  5.773572e-001 -5.000000e-001 -1.632749e-001
    endloop
  endfacet
  facet normal  0.000000e+000 -1.000000e+000  0.000000e+000
    outer loop
      vertex  7.250000e-001 -5.000000e-001  1.775679e-016
      vertex  5.773572e-001 -5.000000e-001 -1.632749e-001
      vertex  7.149538e-001 -5.000000e-001 -1.202747e-001
    endloop
  endfacet
  facet normal  0.000000e+000 -1.000000e+000  0.000000e+000
    outer loop
      vertex  7.149538e-001 -5.000000e-001 -1.202747e-001
      vertex  5.773572e-001 -5.000000e-001 -1.632749e-001
      vertex  5.265495e-001 -5.000000e-001 -2.876553e-001
    endloop
  endfacet
  facet normal  0.000000e+000 -1.000000e+000  0.000000e+000
    outer loop
      vertex  7.149538e-001 -5.000000e-001 -1.202747e-001
      vertex  5.265495e-001 -5.000000e-001 -2.876553e-001
      vertex  6.850938e-001 -5.000000e-001 -2.372162e-001
    endloop
  endfacet
  facet normal  0.000000e+000 -1.000000e+000  0.000000e+000
    outer loop
      vertex  6.850938e-001 -5.000000e-001 -2.372162e-001
      vertex  5.265495e-001 -5.000000e-001 -2.876553e-001
      vertex  4.493385e-001 -5.000000e-001 -3.976115e-001
    endloop
  endfacet
  facet normal  0.000000e+000 -1.000000e+000  0.000000e+000
    outer loop
      vertex  6.850938e-001 -5.000000e-001 -2.372162e-001
      vertex  4.493385e-001 -5.000000e-001 -3.976115e-001
      vertex  6.362473e-001 -5.000000e-001 -3.475835e-001
    endloop
  endfacet
  facet normal  0.000000e+000 -1.000000e+000  0.000000e+000
    outer loop
      vertex  6.362473e-001 -5.000000e-001 -3.475835e-001
      vertex  4.493385e-001 -5.000000e-001 -3.976115e-001
      vertex  3.495958e-001 -5.000000e-001 -4.876298e-001
    endloop
  endfacet
  facet normal  0.000000e+000 -1.000000e+000  0.000000e+000
    outer loop
      vertex  6.362473e-001 -5.000000e-001 -3.475835e-001
      vertex  3.495958e-001 -5.000000e-001 -4.876298e-001
      vertex  5.530134e-001 -5.000000e-001 -4.688295e-001
    endloop
  endfacet
  facet normal  0.000000e+000 -1.000000e+000  0.000000e+000
    outer loop
      vertex  5.530134e-001 -5.000000e-001 -4.688295e-001
      vertex  3.495958e-001 -5.000000e-001 -4.876298e-001
      vertex  2.323228e-001 -5.000000e-001 -5.531963e-001
    endloop
  endfacet
  facet normal  0.000000e+000 -1.000000e+000  0.000000e+000
    outer loop
      vertex  5.530134e-001 -5.000000e-001 -4.688295e-001
      vertex  2.323228e-001 -5.000000e-001 -5.531963e-001
      vertex  4.470240e-001 -5.000000e-001 -5.707842e-001
    endloop
  endfacet
  facet normal  -0.000000e+000 -1.000000e+000  0.000000e+000
    outer loop
      vertex  4.470240e-001 -5.000000e-001 -5.707842e-001
      vertex  2.323228e-001 -5.000000e-001 -5.531963e-001
      vertex  1.034003e-001 -5.000000e-001 -5.910231e-001
    endloop
  endfacet
  facet normal  0.000000e+000 -1.000000e+000  0.000000e+000
    outer loop
      vertex  4.470240e-001 -5.000000e-001 -5.707842e-001
      vertex  1.034003e-001 -5.000000e-001 -5.910231e-001
      vertex  3.226404e-001 -5.000000e-001 -6.492520e-001
    endloop
  endfacet
  facet normal  -0.000000e+000 -1.000000e+000  0.000000e+000
    outer loop
      vertex  3.226404e-001 -5.000000e-001 -6.492520e-001
      vertex  1.034003e-001 -5.000000e-001 -5.910231e-001
      vertex  3.970950e-002 -5.000000e-001 -7.239117e-001
    endloop
  endfacet
  facet normal  0.000000e+000 -1.000000e+000  0.000000e+000
    outer loop
      vertex  3.226404e-001 -5.000000e-001 -6.492520e-001
      vertex  3.970950e-002 -5.000000e-001 -7.239117e-001
      vertex  1.849808e-001 -5.000000e-001 -7.010044e-001
    endloop
  endfacet
  facet normal  0.000000e+000 -1.000000e+000  0.000000e+000
    outer loop
      vertex -2.876553e-001 -5.000000e-001 -5.265495e-001
      vertex -4.984153e-001 -5.000000e-001 -5.265047e-001
      vertex -1.632749e-001 -5.000000e-001 -5.773572e-001
    endloop
  endfacet
  facet normal  -0.000000e+000 -1.000000e+000  0.000000e+000
    outer loop
      vertex -1.632749e-001 -5.000000e-001 -5.773572e-001
      vertex -4.984153e-001 -5.000000e-001 -5.265047e-001
      vertex -3.819101e-001 -5.000000e-001 -6.162545e-001
    endloop
  endfacet
  facet normal  0.000000e+000 -9.999999e-001  0.000000e+000
    outer loop
      vertex -1.632749e-001 -5.000000e-001 -5.773572e-001
      vertex -3.819101e-001 -5.000000e-001 -6.162545e-001
      vertex -3.070721e-002 -5.000000e-001 -5.992137e-001
    endloop
  endfacet
  facet normal  0.000000e+000 -1.000000e+000  0.000000e+000
    outer loop
      vertex -3.070721e-002 -5.000000e-001 -5.992137e-001
      vertex -3.819101e-001 -5.000000e-001 -6.162545e-001
      vertex -2.496901e-001 -5.000000e-001 -6.806467e-001
    endloop
  endfacet
  facet normal  0.000000e+000 -1.000000e+000  0.000000e+000
    outer loop
      vertex -3.070721e-002 -5.000000e-001 -5.992137e-001
      vertex -2.496901e-001 -5.000000e-001 -6.806467e-001
      vertex -1.071957e-001 -5.000000e-001 -7.170314e-001
    endloop
  endfacet
  facet normal  0.000000e+000 -1.000000e+000  0.000000e+000
    outer loop
      vertex -5.531963e-001 -5.000000e-001 -2.323228e-001
      vertex -6.659490e-001 -5.000000e-001 -2.865955e-001
      vertex -4.876298e-001 -5.000000e-001 -3.495958e-001
    endloop
  endfacet
  facet normal  -0.000000e+000 -1.000000e+000  0.000000e+000
    outer loop
      vertex -4.876298e-001 -5.000000e-001 -3.495958e-001
      vertex -6.659490e-001 -5.000000e-001 -2.865955e-001
      vertex -5.944116e-001 -5.000000e-001 -4.150902e-001
    endloop
  endfacet
  facet normal  0.000000e+000 -1.000000e+000  0.000000e+000
    outer loop
      vertex -4.876298e-001 -5.000000e-001 -3.495958e-001
      vertex -5.944116e-001 -5.000000e-001 -4.150902e-001
      vertex -3.976115e-001 -5.000000e-001 -4.493385e-001
    endloop
  endfacet
  facet normal  -0.000000e+000 -1.000000e+000  0.000000e+000
    outer loop
      vertex -3.976115e-001 -5.000000e-001 -4.493385e-001
      vertex -5.944116e-001 -5.000000e-001 -4.150902e-001
      vertex -4.984153e-001 -5.000000e-001 -5.265047e-001
    endloop
  endfacet
  facet normal  0.000000e+000 -1.000000e+000  0.000000e+000
    outer loop
      vertex -3.976115e-001 -5.000000e-001 -4.493385e-001
      vertex -4.984153e-001 -5.000000e-001 -5.265047e-001
      vertex -2.876553e-001 -5.000000e-001 -5.265495e-001
    endloop
  endfacet
  facet normal  0.000000e+000 -1.000000e+000  0.000000e+000
    outer loop
      vertex -5.265495e-001 -5.000000e-001  2.876553e-001
      vertex -7.149538e-001 -5.000000e-001  1.202747e-001
      vertex -5.773572e-001 -5.000000e-001  1.632749e-001
    endloop
  endfacet
  facet normal  0.000000e+000 -1.000000e+000  0.000000e+000
    outer loop
      vertex -5.773572e-001 -5.000000e-001  1.632749e-001
      vertex -7.149538e-001 -5.000000e-001  1.202747e-001
      vertex -7.250000e-001 -5.000000e-001  0.000000e+000
    endloop
  endfacet
  facet normal  0.000000e+000 -1.000000e+000  0.000000e+000
    outer loop
      vertex -5.773572e-001 -5.000000e-001  1.632749e-001
      vertex -7.250000e-001 -5.000000e-001  0.000000e+000
      vertex -5.992137e-001 -5.000000e-001  3.070721e-002
    endloop
  endfacet
  facet normal  0.000000e+000 -1.000000e+000  0.000000e+000
    outer loop
      vertex -5.992137e-001 -5.000000e-001  3.070721e-002
      vertex -7.250000e-001 -5.000000e-001  0.000000e+000
      vertex -7.100838e-001 -5.000000e-001 -1.463079e-001
    endloop
  endfacet
  facet normal  0.000000e+000 -1.000000e+000  0.000000e+000
    outer loop
      vertex -5.992137e-001 -5.000000e-001  3.070721e-002
      vertex -7.100838e-001 -5.000000e-001 -1.463079e-001
      vertex -5.910231e-001 -5.000000e-001 -1.034003e-001
    endloop
  endfacet
  facet normal  0.000000e+000 -1.000000e+000  0.000000e+000
    outer loop
      vertex -5.910231e-001 -5.000000e-001 -1.034003e-001
      vertex -7.100838e-001 -5.000000e-001 -1.463079e-001
      vertex -6.659490e-001 -5.000000e-001 -2.865955e-001
    endloop
  endfacet
  facet normal  0.000000e+000 -1.000000e+000  0.000000e+000
    outer loop
      vertex -5.910231e-001 -5.000000e-001 -1.034003e-001
      vertex -6.659490e-001 -5.000000e-001 -2.865955e-001
      vertex -5.531963e-001 -5.000000e-001 -2.323228e-001
    endloop
  endfacet
  facet normal  0.000000e+000 -1.000000e+000  0.000000e+000
    outer loop
      vertex -7.149538e-001 -5.000000e-001  1.202747e-001
      vertex -5.265495e-001 -5.000000e-001  2.876553e-001
      vertex -6.850938e-001 -5.000000e-001  2.372162e-001
    endloop
  endfacet
  facet normal  0.000000e+000 -1.000000e+000  0.000000e+000
    outer loop
      vertex -6.850938e-001 -5.000000e-001  2.372162e-001
      vertex -5.265495e-001 -5.000000e-001  2.876553e-001
      vertex -4.493385e-001 -5.000000e-001  3.976115e-001
    endloop
  endfacet
  facet normal  0.000000e+000 -1.000000e+000  0.000000e+000
    outer loop
      vertex -6.850938e-001 -5.000000e-001  2.372162e-001
      vertex -4.493385e-001 -5.000000e-001  3.976115e-001
      vertex -6.362473e-001 -5.000000e-001  3.475835e-001
    endloop
  endfacet
  facet normal  0.000000e+000 -1.000000e+000  0.000000e+000
    outer loop
      vertex -6.362473e-001 -5.000000e-001  3.475835e-001
      vertex -4.493385e-001 -5.000000e-001  3.976115e-001
      vertex -3.495958e-001 -5.000000e-001  4.876298e-001
    endloop
  endfacet
  facet normal  0.000000e+000 -1.000000e+000  0.000000e+000
    outer loop
      vertex -6.362473e-001 -5.000000e-001  3.475835e-001
      vertex -3.495958e-001 -5.000000e-001  4.876298e-001
      vertex -5.530134e-001 -5.000000e-001  4.688295e-001
    endloop
  endfacet
  facet normal  0.000000e+000 -1.000000e+000  0.000000e+000
    outer loop
      vertex -5.530134e-001 -5.000000e-001  4.688295e-001
      vertex -3.495958e-001 -5.000000e-001  4.876298e-001
      vertex -2.323228e-001 -5.000000e-001  5.531963e-001
    endloop
  endfacet
  facet normal  -0.000000e+000 -1.000000e+000  0.000000e+000
    outer loop
      vertex -5.530134e-001 -5.000000e-001  4.688295e-001
      vertex -2.323228e-001 -5.000000e-001  5.531963e-001
      vertex -4.470240e-001 -5.000000e-001  5.707842e-001
    endloop
  endfacet
  facet normal  0.000000e+000 -1.000000e+000  0.000000e+000
    outer loop
      vertex -4.470240e-001 -5.000000e-001  5.707842e-001
      vertex -2.323228e-001 -5.000000e-001  5.531963e-001
      vertex -1.034003e-001 -5.000000e-001  5.910231e-001
    endloop
  endfacet
  facet normal  -0.000000e+000 -1.000000e+000  0.000000e+000
    outer loop
      vertex -4.470240e-001 -5.000000e-001  5.707842e-001
      vertex -1.034003e-001 -5.000000e-001  5.910231e-001
      vertex -3.226404e-001 -5.000000e-001  6.492520e-001
    endloop
  endfacet
  facet normal  0.000000e+000 -9.999999e-001  0.000000e+000
    outer loop
      vertex  3.070721e-002 -5.000000e-001  5.992137e-001
      vertex  1.632749e-001 -5.000000e-001  5.773572e-001
      vertex  3.819101e-001 -5.000000e-001  6.162545e-001
    endloop
  endfacet
  facet normal  0.000000e+000 -1.000000e+000  0.000000e+000
    outer loop
      vertex  3.819101e-001 -5.000000e-001  6.162545e-001
      vertex  1.632749e-001 -5.000000e-001  5.773572e-001
      vertex  2.876553e-001 -5.000000e-001  5.265495e-001
    endloop
  endfacet
  facet normal  0.000000e+000 -1.000000e+000  0.000000e+000
    outer loop
      vertex  3.819101e-001 -5.000000e-001  6.162545e-001
      vertex  2.876553e-001 -5.000000e-001  5.265495e-001
      vertex  4.984153e-001 -5.000000e-001  5.265047e-001
    endloop
  endfacet
  facet normal  -0.000000e+000 -1.000000e+000  0.000000e+000
    outer loop
      vertex  4.984153e-001 -5.000000e-001  5.265047e-001
      vertex  2.876553e-001 -5.000000e-001  5.265495e-001
      vertex  3.976115e-001 -5.000000e-001  4.493385e-001
    endloop
  endfacet
  facet normal  0.000000e+000 -1.000000e+000  0.000000e+000
    outer loop
      vertex  4.984153e-001 -5.000000e-001  5.265047e-001
      vertex  3.976115e-001 -5.000000e-001  4.493385e-001
      vertex  5.944116e-001 -5.000000e-001  4.150902e-001
    endloop
  endfacet
  facet normal  0.000000e+000  1.000000e+000  -0.000000e+000
    outer loop
      vertex  1.034003e-001 -6.800000e-001 -5.910231e-001
      vertex  3.970950e-002 -6.800000e-001 -7.239117e-001
      vertex -3.070721e-002 -6.800000e-001 -5.992137e-001
    endloop
  endfacet
  facet normal  -0.000000e+000  1.000000e+000  0.000000e+000
    outer loop
      vertex  3.970950e-002 -6.800000e-001 -7.239117e-001
      vertex -1.071957e-001 -6.800000e-001 -7.170314e-001
      vertex -3.070721e-002 -6.800000e-001 -5.992137e-001
    endloop
  endfacet
  facet normal  0.000000e+000  1.000000e+000  0.000000e+000
    outer loop
      vertex  2.496901e-001 -6.800000e-001  6.806467e-001
      vertex  3.819101e-001 -6.800000e-001  6.162545e-001
      vertex  1.071957e-001 -6.800000e-001  7.170314e-001
    endloop
  endfacet
  facet normal  0.000000e+000  1.000000e+000  0.000000e+000
    outer loop
      vertex  1.071957e-001 -6.800000e-001  7.170314e-001
      vertex  3.819101e-001 -6.800000e-001  6.162545e-001
      vertex  3.070721e-002 -6.800000e-001  5.992137e-001
    endloop
  endfacet
  facet normal  0.000000e+000  1.000000e+000  -0.000000e+000
    outer loop
      vertex  1.071957e-001 -6.800000e-001  7.170314e-001
      vertex  3.070721e-002 -6.800000e-001  5.992137e-001
      vertex -3.970950e-002 -6.800000e-001  7.239117e-001
    endloop
  endfacet
  facet normal  0.000000e+000  1.000000e+000  0.000000e+000
    outer loop
      vertex -3.970950e-002 -6.800000e-001  7.239117e-001
      vertex  3.070721e-002 -6.800000e-001  5.992137e-001
      vertex -1.034003e-001 -6.800000e-001  5.910231e-001
    endloop
  endfacet
  facet normal  0.000000e+000  1.000000e+000  -0.000000e+000
    outer loop
      vertex -3.970950e-002 -6.800000e-001  7.239117e-001
      vertex -1.034003e-001 -6.800000e-001  5.910231e-001
      vertex -1.849808e-001 -6.800000e-001  7.010044e-001
    endloop
  endfacet
  facet normal  0.000000e+000  1.000000e+000  0.000000e+000
    outer loop
      vertex -1.849808e-001 -6.800000e-001  7.010044e-001
      vertex -1.034003e-001 -6.800000e-001  5.910231e-001
      vertex -3.226404e-001 -6.800000e-001  6.492520e-001
    endloop
  endfacet
  facet normal  0.000000e+000  1.000000e+000  0.000000e+000
    outer loop
      vertex  1.849808e-001 -6.800000e-001 -7.010044e-001
      vertex  3.970950e-002 -6.800000e-001 -7.239117e-001
      vertex  3.226404e-001 -6.800000e-001 -6.492520e-001
    endloop
  endfacet
  facet normal  0.000000e+000  1.000000e+000  0.000000e+000
    outer loop
      vertex  3.226404e-001 -6.800000e-001 -6.492520e-001
      vertex  3.970950e-002 -6.800000e-001 -7.239117e-001
      vertex  1.034003e-001 -6.800000e-001 -5.910231e-001
    endloop
  endfacet
  facet normal  -0.000000e+000  1.000000e+000  0.000000e+000
    outer loop
      vertex  3.226404e-001 -6.800000e-001 -6.492520e-001
      vertex  1.034003e-001 -6.800000e-001 -5.910231e-001
      vertex  4.470240e-001 -6.800000e-001 -5.707842e-001
    endloop
  endfacet
  facet normal  0.000000e+000  1.000000e+000  0.000000e+000
    outer loop
      vertex  4.470240e-001 -6.800000e-001 -5.707842e-001
      vertex  1.034003e-001 -6.800000e-001 -5.910231e-001
      vertex  2.323228e-001 -6.800000e-001 -5.531963e-001
    endloop
  endfacet
  facet normal  -0.000000e+000  1.000000e+000  0.000000e+000
    outer loop
      vertex  4.470240e-001 -6.800000e-001 -5.707842e-001
      vertex  2.323228e-001 -6.800000e-001 -5.531963e-001
      vertex  5.530134e-001 -6.800000e-001 -4.688295e-001
    endloop
  endfacet
  facet normal  0.000000e+000  1.000000e+000  0.000000e+000
    outer loop
      vertex  5.530134e-001 -6.800000e-001 -4.688295e-001
      vertex  2.323228e-001 -6.800000e-001 -5.531963e-001
      vertex  3.495958e-001 -6.800000e-001 -4.876298e-001
    endloop
  endfacet
  facet normal  0.000000e+000  1.000000e+000  0.000000e+000
    outer loop
      vertex  5.530134e-001 -6.800000e-001 -4.688295e-001
      vertex  3.495958e-001 -6.800000e-001 -4.876298e-001
      vertex  6.362473e-001 -6.800000e-001 -3.475835e-001
    endloop
  endfacet
  facet normal  0.000000e+000  1.000000e+000  0.000000e+000
    outer loop
      vertex  6.362473e-001 -6.800000e-001 -3.475835e-001
      vertex  3.495958e-001 -6.800000e-001 -4.876298e-001
      vertex  4.493385e-001 -6.800000e-001 -3.976115e-001
    endloop
  endfacet
  facet normal  0.000000e+000  1.000000e+000  0.000000e+000
    outer loop
      vertex  6.362473e-001 -6.800000e-001 -3.475835e-001
      vertex  4.493385e-001 -6.800000e-001 -3.976115e-001
      vertex  6.850938e-001 -6.800000e-001 -2.372162e-001
    endloop
  endfacet
  facet normal  0.000000e+000  1.000000e+000  0.000000e+000
    outer loop
      vertex  6.850938e-001 -6.800000e-001 -2.372162e-001
      vertex  4.493385e-001 -6.800000e-001 -3.976115e-001
      vertex  5.265495e-001 -6.800000e-001 -2.876553e-001
    endloop
  endfacet
  facet normal  0.000000e+000  1.000000e+000  0.000000e+000
    outer loop
      vertex  6.850938e-001 -6.800000e-001 -2.372162e-001
      vertex  5.265495e-001 -6.800000e-001 -2.876553e-001
      vertex  7.149538e-001 -6.800000e-001 -1.202747e-001
    endloop
  endfacet
  facet normal  0.000000e+000  1.000000e+000  0.000000e+000
    outer loop
      vertex  7.149538e-001 -6.800000e-001 -1.202747e-001
      vertex  5.265495e-001 -6.800000e-001 -2.876553e-001
      vertex  5.773572e-001 -6.800000e-001 -1.632749e-001
    endloop
  endfacet
  facet normal  0.000000e+000  1.000000e+000  0.000000e+000
    outer loop
      vertex  7.149538e-001 -6.800000e-001 -1.202747e-001
      vertex  5.773572e-001 -6.800000e-001 -1.632749e-001
      vertex  7.250000e-001 -6.800000e-001  1.775679e-016
    endloop
  endfacet
  facet normal  0.000000e+000  1.000000e+000  0.000000e+000
    outer loop
      vertex  7.250000e-001 -6.800000e-001  1.775679e-016
      vertex  5.773572e-001 -6.800000e-001 -1.632749e-001
      vertex  5.992137e-001 -6.800000e-001 -3.070721e-002
    endloop
  endfacet
  facet normal  0.000000e+000  1.000000e+000  0.000000e+000
    outer loop
      vertex  7.250000e-001 -6.800000e-001  1.775679e-016
      vertex  5.992137e-001 -6.800000e-001 -3.070721e-002
      vertex  7.100838e-001 -6.800000e-001  1.463079e-001
    endloop
  endfacet
  facet normal  0.000000e+000  1.000000e+000  0.000000e+000
    outer loop
      vertex  7.100838e-001 -6.800000e-001  1.463079e-001
      vertex  5.992137e-001 -6.800000e-001 -3.070721e-002
      vertex  5.910231e-001 -6.800000e-001  1.034003e-001
    endloop
  endfacet
  facet normal  0.000000e+000  1.000000e+000  0.000000e+000
    outer loop
      vertex  7.100838e-001 -6.800000e-001  1.463079e-001
      vertex  5.910231e-001 -6.800000e-001  1.034003e-001
      vertex  6.659490e-001 -6.800000e-001  2.865955e-001
    endloop
  endfacet
  facet normal  0.000000e+000  1.000000e+000  0.000000e+000
    outer loop
      vertex  6.659490e-001 -6.800000e-001  2.865955e-001
      vertex  5.910231e-001 -6.800000e-001  1.034003e-001
      vertex  5.531963e-001 -6.800000e-001  2.323228e-001
    endloop
  endfacet
  facet normal  0.000000e+000  1.000000e+000  0.000000e+000
    outer loop
      vertex  6.659490e-001 -6.800000e-001  2.865955e-001
      vertex  5.531963e-001 -6.800000e-001  2.323228e-001
      vertex  5.944116e-001 -6.800000e-001  4.150902e-001
    endloop
  endfacet
  facet normal  0.000000e+000  1.000000e+000  0.000000e+000
    outer loop
      vertex  5.944116e-001 -6.800000e-001  4.150902e-001
      vertex  5.531963e-001 -6.800000e-001  2.323228e-001
      vertex  4.876298e-001 -6.800000e-001  3.495958e-001
    endloop
  endfacet
  facet normal  0.000000e+000  1.000000e+000  -0.000000e+000
    outer loop
      vertex  5.944116e-001 -6.800000e-001  4.150902e-001
      vertex  4.876298e-001 -6.800000e-001  3.495958e-001
      vertex  3.976115e-001 -6.800000e-001  4.493385e-001
    endloop
  endfacet
  facet normal  -0.000000e+000  1.000000e+000  0.000000e+000
    outer loop
      vertex -1.071957e-001 -6.800000e-001 -7.170314e-001
      vertex -2.496901e-001 -6.800000e-001 -6.806467e-001
      vertex -3.070721e-002 -6.800000e-001 -5.992137e-001
    endloop
  endfacet
  facet normal  0.000000e+000  1.000000e+000  0.000000e+000
    outer loop
      vertex -3.070721e-002 -6.800000e-001 -5.992137e-001
      vertex -2.496901e-001 -6.800000e-001 -6.806467e-001
      vertex -3.819101e-001 -6.800000e-001 -6.162545e-001
    endloop
  endfacet
  facet normal  0.000000e+000  9.999999e-001  0.000000e+000
    outer loop
      vertex -3.070721e-002 -6.800000e-001 -5.992137e-001
      vertex -3.819101e-001 -6.800000e-001 -6.162545e-001
      vertex -1.632749e-001 -6.800000e-001 -5.773572e-001
    endloop
  endfacet
  facet normal  0.000000e+000  1.000000e+000  0.000000e+000
    outer loop
      vertex -1.632749e-001 -6.800000e-001 -5.773572e-001
      vertex -3.819101e-001 -6.800000e-001 -6.162545e-001
      vertex -4.984153e-001 -6.800000e-001 -5.265047e-001
    endloop
  endfacet
  facet normal  0.000000e+000  1.000000e+000  0.000000e+000
    outer loop
      vertex -1.632749e-001 -6.800000e-001 -5.773572e-001
      vertex -4.984153e-001 -6.800000e-001 -5.265047e-001
      vertex -2.876553e-001 -6.800000e-001 -5.265495e-001
    endloop
  endfacet
  facet normal  -0.000000e+000  1.000000e+000  0.000000e+000
    outer loop
      vertex -2.876553e-001 -6.800000e-001 -5.265495e-001
      vertex -4.984153e-001 -6.800000e-001 -5.265047e-001
      vertex -3.976115e-001 -6.800000e-001 -4.493385e-001
    endloop
  endfacet
  facet normal  0.000000e+000  1.000000e+000  0.000000e+000
    outer loop
      vertex -3.976115e-001 -6.800000e-001 -4.493385e-001
      vertex -4.984153e-001 -6.800000e-001 -5.265047e-001
      vertex -5.944116e-001 -6.800000e-001 -4.150902e-001
    endloop
  endfacet
  facet normal  -0.000000e+000  1.000000e+000  0.000000e+000
    outer loop
      vertex -3.976115e-001 -6.800000e-001 -4.493385e-001
      vertex -5.944116e-001 -6.800000e-001 -4.150902e-001
      vertex -4.876298e-001 -6.800000e-001 -3.495958e-001
    endloop
  endfacet
  facet normal  0.000000e+000  1.000000e+000  0.000000e+000
    outer loop
      vertex -4.876298e-001 -6.800000e-001 -3.495958e-001
      vertex -5.944116e-001 -6.800000e-001 -4.150902e-001
      vertex -6.659490e-001 -6.800000e-001 -2.865955e-001
    endloop
  endfacet
  facet normal  -0.000000e+000  1.000000e+000  0.000000e+000
    outer loop
      vertex -4.876298e-001 -6.800000e-001 -3.495958e-001
      vertex -6.659490e-001 -6.800000e-001 -2.865955e-001
      vertex -5.531963e-001 -6.800000e-001 -2.323228e-001
    endloop
  endfacet
  facet normal  0.000000e+000  1.000000e+000  0.000000e+000
    outer loop
      vertex -5.531963e-001 -6.800000e-001 -2.323228e-001
      vertex -6.659490e-001 -6.800000e-001 -2.865955e-001
      vertex -5.910231e-001 -6.800000e-001 -1.034003e-001
    endloop
  endfacet
  facet normal  0.000000e+000  1.000000e+000  0.000000e+000
    outer loop
      vertex -5.910231e-001 -6.800000e-001 -1.034003e-001
      vertex -6.659490e-001 -6.800000e-001 -2.865955e-001
      vertex -7.100838e-001 -6.800000e-001 -1.463079e-001
    endloop
  endfacet
  facet normal  0.000000e+000  1.000000e+000  0.000000e+000
    outer loop
      vertex -5.910231e-001 -6.800000e-001 -1.034003e-001
      vertex -7.100838e-001 -6.800000e-001 -1.463079e-001
      vertex -5.992137e-001 -6.800000e-001  3.070721e-002
    endloop
  endfacet
  facet normal  0.000000e+000  1.000000e+000  0.000000e+000
    outer loop
      vertex -5.992137e-001 -6.800000e-001  3.070721e-002
      vertex -7.100838e-001 -6.800000e-001 -1.463079e-001
      vertex -7.250000e-001 -6.800000e-001  0.000000e+000
    endloop
  endfacet
  facet normal  0.000000e+000  1.000000e+000  0.000000e+000
    outer loop
      vertex -5.992137e-001 -6.800000e-001  3.070721e-002
      vertex -7.250000e-001 -6.800000e-001  0.000000e+000
      vertex -5.773572e-001 -6.800000e-001  1.632749e-001
    endloop
  endfacet
  facet normal  0.000000e+000  1.000000e+000  0.000000e+000
    outer loop
      vertex -5.773572e-001 -6.800000e-001  1.632749e-001
      vertex -7.250000e-001 -6.800000e-001  0.000000e+000
      vertex -7.149538e-001 -6.800000e-001  1.202747e-001
    endloop
  endfacet
  facet normal  0.000000e+000  1.000000e+000  0.000000e+000
    outer loop
      vertex -5.773572e-001 -6.800000e-001  1.632749e-001
      vertex -7.149538e-001 -6.800000e-001  1.202747e-001
      vertex -5.265495e-001 -6.800000e-001  2.876553e-001
    endloop
  endfacet
  facet normal  0.000000e+000  1.000000e+000  0.000000e+000
    outer loop
      vertex -5.265495e-001 -6.800000e-001  2.876553e-001
      vertex -7.149538e-001 -6.800000e-001  1.202747e-001
      vertex -6.850938e-001 -6.800000e-001  2.372162e-001
    endloop
  endfacet
  facet normal  0.000000e+000  1.000000e+000  0.000000e+000
    outer loop
      vertex -5.265495e-001 -6.800000e-001  2.876553e-001
      vertex -6.850938e-001 -6.800000e-001  2.372162e-001
      vertex -4.493385e-001 -6.800000e-001  3.976115e-001
    endloop
  endfacet
  facet normal  0.000000e+000  1.000000e+000  0.000000e+000
    outer loop
      vertex -4.493385e-001 -6.800000e-001  3.976115e-001
      vertex -6.850938e-001 -6.800000e-001  2.372162e-001
      vertex -6.362473e-001 -6.800000e-001  3.475835e-001
    endloop
  endfacet
  facet normal  0.000000e+000  1.000000e+000  0.000000e+000
    outer loop
      vertex -4.493385e-001 -6.800000e-001  3.976115e-001
      vertex -6.362473e-001 -6.800000e-001  3.475835e-001
      vertex -3.495958e-001 -6.800000e-001  4.876298e-001
    endloop
  endfacet
  facet normal  0.000000e+000  1.000000e+000  0.000000e+000
    outer loop
      vertex -3.495958e-001 -6.800000e-001  4.876298e-001
      vertex -6.362473e-001 -6.800000e-001  3.475835e-001
      vertex -5.530134e-001 -6.800000e-001  4.688295e-001
    endloop
  endfacet
  facet normal  0.000000e+000  1.000000e+000  0.000000e+000
    outer loop
      vertex -3.495958e-001 -6.800000e-001  4.876298e-001
      vertex -5.530134e-001 -6.800000e-001  4.688295e-001
      vertex -2.323228e-001 -6.800000e-001  5.531963e-001
    endloop
  endfacet
  facet normal  0.000000e+000  1.000000e+000  0.000000e+000
    outer loop
      vertex -2.323228e-001 -6.800000e-001  5.531963e-001
      vertex -5.530134e-001 -6.800000e-001  4.688295e-001
      vertex -4.470240e-001 -6.800000e-001  5.707842e-001
    endloop
  endfacet
  facet normal  -0.000000e+000  1.000000e+000  0.000000e+000
    outer loop
      vertex -2.323228e-001 -6.800000e-001  5.531963e-001
      vertex -4.470240e-001 -6.800000e-001  5.707842e-001
      vertex -1.034003e-001 -6.800000e-001  5.910231e-001
    endloop
  endfacet
  facet normal  0.000000e+000  1.000000e+000  0.000000e+000
    outer loop
      vertex -1.034003e-001 -6.800000e-001  5.910231e-001
      vertex -4.470240e-001 -6.800000e-001  5.707842e-001
      vertex -3.226404e-001 -6.800000e-001  6.492520e-001
    endloop
  endfacet
  facet normal  -0.000000e+000  1.000000e+000  0.000000e+000
    outer loop
      vertex  5.944116e-001 -6.800000e-001  4.150902e-001
      vertex  3.976115e-001 -6.800000e-001  4.493385e-001
      vertex  4.984153e-001 -6.800000e-001  5.265047e-001
    endloop
  endfacet
  facet normal  0.000000e+000  1.000000e+000  0.000000e+000
    outer loop
      vertex  4.984153e-001 -6.800000e-001  5.265047e-001
      vertex  3.976115e-001 -6.800000e-001  4.493385e-001
      vertex  2.876553e-001 -6.800000e-001  5.265495e-001
    endloop
  endfacet
  facet normal  -0.000000e+000  1.000000e+000  0.000000e+000
    outer loop
      vertex  4.984153e-001 -6.800000e-001  5.265047e-001
      vertex  2.876553e-001 -6.800000e-001  5.265495e-001
      vertex  3.819101e-001 -6.800000e-001  6.162545e-001
    endloop
  endfacet
  facet normal  0.000000e+000  1.000000e+000  0.000000e+000
    outer loop
      vertex  3.819101e-001 -6.800000e-001  6.162545e-001
      vertex  2.876553e-001 -6.800000e-001  5.265495e-001
      vertex  1.632749e-001 -6.800000e-001  5.773572e-001
    endloop
  endfacet
  facet normal  0.000000e+000  9.999999e-001  -0.000000e+000
    outer loop
      vertex  3.819101e-001 -6.800000e-001  6.162545e-001
      vertex  1.632749e-001 -6.800000e-001  5.773572e-001
      vertex  3.070721e-002 -6.800000e-001  5.992137e-001
    endloop
  endfacet
  facet normal  9.945219e-001 -1.841125e-018  1.045287e-001
    outer loop
      vertex  7.250000e-001 -2.400000e+001 -2.331807e-016
      vertex  7.250000e-001 -6.800000e-001  1.775679e-016
      vertex  7.091570e-001 -2.400000e+001  1.507360e-001
    endloop
  endfacet
  facet normal  9.948432e-001 -2.027837e-005  1.014253e-001
    outer loop
      vertex  7.091570e-001 -2.400000e+001  1.507360e-001
      vertex  7.250000e-001 -6.800000e-001  1.775679e-016
      vertex  7.100838e-001 -6.800000e-001  1.463079e-001
    endloop
  endfacet
  facet normal  9.510565e-001  2.088024e-005  3.090170e-001
    outer loop
      vertex  7.091570e-001 -2.400000e+001  1.507360e-001
      vertex  7.100838e-001 -6.800000e-001  1.463079e-001
      vertex  6.623204e-001 -2.400000e+001  2.948841e-001
    endloop
  endfacet
  facet normal  9.539073e-001 -4.176176e-005  3.001014e-001
    outer loop
      vertex  6.623204e-001 -2.400000e+001  2.948841e-001
      vertex  7.100838e-001 -6.800000e-001  1.463079e-001
      vertex  6.659490e-001 -6.800000e-001  2.865955e-001
    endloop
  endfacet
  facet normal  8.660255e-001  4.296217e-005  5.000000e-001
    outer loop
      vertex  6.623204e-001 -2.400000e+001  2.948841e-001
      vertex  6.659490e-001 -6.800000e-001  2.865955e-001
      vertex  5.865373e-001 -2.400000e+001  4.261443e-001
    endloop
  endfacet
  facet normal  8.737198e-001 -6.444623e-005  4.864295e-001
    outer loop
      vertex  5.865373e-001 -2.400000e+001  4.261443e-001
      vertex  6.659490e-001 -6.800000e-001  2.865955e-001
      vertex  5.944116e-001 -6.800000e-001  4.150902e-001
    endloop
  endfacet
  facet normal  7.431449e-001  6.624794e-005  6.691305e-001
    outer loop
      vertex  5.865373e-001 -2.400000e+001  4.261443e-001
      vertex  5.944116e-001 -6.800000e-001  4.150902e-001
      vertex  4.851197e-001 -2.400000e+001  5.387800e-001
    endloop
  endfacet
  facet normal  7.575803e-001 -8.833146e-005  6.527418e-001
    outer loop
      vertex  4.851197e-001 -2.400000e+001  5.387800e-001
      vertex  5.944116e-001 -6.800000e-001  4.150902e-001
      vertex  4.984153e-001 -6.800000e-001  5.265047e-001
    endloop
  endfacet
  facet normal  5.877854e-001  9.073562e-005  8.090169e-001
    outer loop
      vertex  4.851197e-001 -2.400000e+001  5.387800e-001
      vertex  4.984153e-001 -6.800000e-001  5.265047e-001
      vertex  3.625000e-001 -2.400000e+001  6.278684e-001
    endloop
  endfacet
  facet normal  6.102679e-001 -1.134170e-004  7.921951e-001
    outer loop
      vertex  3.625000e-001 -2.400000e+001  6.278684e-001
      vertex  4.984153e-001 -6.800000e-001  5.265047e-001
      vertex  3.819101e-001 -6.800000e-001  6.162545e-001
    endloop
  endfacet
  facet normal  4.067365e-001  1.164251e-004  9.135455e-001
    outer loop
      vertex  3.625000e-001 -2.400000e+001  6.278684e-001
      vertex  3.819101e-001 -6.800000e-001  6.162545e-001
      vertex  2.240373e-001 -2.400000e+001  6.895159e-001
    endloop
  endfacet
  facet normal  4.378444e-001 -1.397072e-004  8.990507e-001
    outer loop
      vertex  2.240373e-001 -2.400000e+001  6.895159e-001
      vertex  3.819101e-001 -6.800000e-001  6.162545e-001
      vertex  2.496901e-001 -6.800000e-001  6.806467e-001
    endloop
  endfacet
  facet normal  2.079119e-001  1.433088e-004  9.781476e-001
    outer loop
      vertex  2.240373e-001 -2.400000e+001  6.895159e-001
      vertex  2.496901e-001 -6.800000e-001  6.806467e-001
      vertex  7.578313e-002 -2.400000e+001  7.210284e-001
    endloop
  endfacet
  facet normal  2.474038e-001 -1.671907e-004  9.689124e-001
    outer loop
      vertex  7.578313e-002 -2.400000e+001  7.210284e-001
      vertex  2.496901e-001 -6.800000e-001  6.806467e-001
      vertex  1.071957e-001 -6.800000e-001  7.170314e-001
    endloop
  endfacet
  facet normal  0.000000e+000  1.713966e-004  1.000000e+000
    outer loop
      vertex  7.578313e-002 -2.400000e+001  7.210284e-001
      vertex  1.071957e-001 -6.800000e-001  7.170314e-001
      vertex -7.578313e-002 -2.400000e+001  7.210284e-001
    endloop
  endfacet
  facet normal  4.678356e-002 -1.958753e-004  9.989051e-001
    outer loop
      vertex -7.578313e-002 -2.400000e+001  7.210284e-001
      vertex  1.071957e-001 -6.800000e-001  7.170314e-001
      vertex -3.970950e-002 -6.800000e-001  7.239117e-001
    endloop
  endfacet
  facet normal -2.079119e-001  2.006788e-004  9.781476e-001
    outer loop
      vertex -7.578313e-002 -2.400000e+001  7.210284e-001
      vertex -3.970950e-002 -6.800000e-001  7.239117e-001
      vertex -2.240373e-001 -2.400000e+001  6.895159e-001
    endloop
  endfacet
  facet normal -1.557619e-001 -2.257589e-004  9.877946e-001
    outer loop
      vertex -2.240373e-001 -2.400000e+001  6.895159e-001
      vertex -3.970950e-002 -6.800000e-001  7.239117e-001
      vertex -1.849808e-001 -6.800000e-001  7.010044e-001
    endloop
  endfacet
  facet normal -4.067365e-001  2.311539e-004  9.135455e-001
    outer loop
      vertex -2.240373e-001 -2.400000e+001  6.895159e-001
      vertex -1.849808e-001 -6.800000e-001  7.010044e-001
      vertex -3.625000e-001 -2.400000e+001  6.278684e-001
    endloop
  endfacet
  facet normal -3.518984e-001 -2.568320e-004  9.360381e-001
    outer loop
      vertex -3.625000e-001 -2.400000e+001  6.278684e-001
      vertex -1.849808e-001 -6.800000e-001  7.010044e-001
      vertex -3.226404e-001 -6.800000e-001  6.492520e-001
    endloop
  endfacet
  facet normal -5.877854e-001  2.628303e-004  8.090169e-001
    outer loop
      vertex -3.625000e-001 -2.400000e+001  6.278684e-001
      vertex -3.226404e-001 -6.800000e-001  6.492520e-001
      vertex -4.851197e-001 -2.400000e+001  5.387800e-001
    endloop
  endfacet
  facet normal -5.335544e-001 -2.891045e-004  8.457657e-001
    outer loop
      vertex -4.851197e-001 -2.400000e+001  5.387800e-001
      vertex -3.226404e-001 -6.800000e-001  6.492520e-001
      vertex -4.470240e-001 -6.800000e-001  5.707842e-001
    endloop
  endfacet
  facet normal -7.431449e-001  2.956963e-004  6.691305e-001
    outer loop
      vertex -4.851197e-001 -2.400000e+001  5.387800e-001
      vertex -4.470240e-001 -6.800000e-001  5.707842e-001
      vertex -5.865373e-001 -2.400000e+001  4.261443e-001
    endloop
  endfacet
  facet normal -6.932560e-001 -3.225672e-004  7.206913e-001
    outer loop
      vertex -5.865373e-001 -2.400000e+001  4.261443e-001
      vertex -4.470240e-001 -6.800000e-001  5.707842e-001
      vertex -5.530134e-001 -6.800000e-001  4.688295e-001
    endloop
  endfacet
  facet normal -8.660254e-001  3.297553e-004  5.000000e-001
    outer loop
      vertex -5.865373e-001 -2.400000e+001  4.261443e-001
      vertex -5.530134e-001 -6.800000e-001  4.688295e-001
      vertex -6.623204e-001 -2.400000e+001  2.948841e-001
    endloop
  endfacet
  facet normal -8.244314e-001 -3.572211e-004  5.659618e-001
    outer loop
      vertex -6.623204e-001 -2.400000e+001  2.948841e-001
      vertex -5.530134e-001 -6.800000e-001  4.688295e-001
      vertex -6.362473e-001 -6.800000e-001  3.475835e-001
    endloop
  endfacet
  facet normal -9.510565e-001  3.650070e-004  3.090170e-001
    outer loop
      vertex -6.623204e-001 -2.400000e+001  2.948841e-001
      vertex -6.362473e-001 -6.800000e-001  3.475835e-001
      vertex -7.091570e-001 -2.400000e+001  1.507360e-001
    endloop
  endfacet
  facet normal -9.144429e-001 -5.572614e-004  4.047145e-001
    outer loop
      vertex -7.091570e-001 -2.400000e+001  1.507360e-001
      vertex -6.362473e-001 -6.800000e-001  3.475835e-001
      vertex -6.850938e-001 -6.800000e-001  2.372162e-001
    endloop
  endfacet
  facet normal -9.689123e-001  8.231591e-005  2.474041e-001
    outer loop
      vertex -7.091570e-001 -2.400000e+001  1.507360e-001
      vertex -6.850938e-001 -6.800000e-001  2.372162e-001
      vertex -7.149538e-001 -6.800000e-001  1.202747e-001
    endloop
  endfacet
  facet normal -9.965297e-001 -1.389890e-004  8.323713e-002
    outer loop
      vertex -7.149538e-001 -6.800000e-001  1.202747e-001
      vertex -7.250000e-001 -6.800000e-001  0.000000e+000
      vertex -7.091570e-001 -2.400000e+001  1.507360e-001
    endloop
  endfacet
  facet normal -9.945219e-001  0.000000e+000  1.045287e-001
    outer loop
      vertex -7.091570e-001 -2.400000e+001  1.507360e-001
      vertex -7.250000e-001 -6.800000e-001  0.000000e+000
      vertex -7.250000e-001 -2.400000e+001  0.000000e+000
    endloop
  endfacet
  facet normal  9.948432e-001  8.332061e-017  1.014253e-001
    outer loop
      vertex  7.250000e-001 -5.000000e-001  1.775679e-016
      vertex  7.250000e-001  0.000000e+000 -2.331807e-016
      vertex  7.100838e-001 -5.000000e-001  1.463079e-001
    endloop
  endfacet
  facet normal  9.945214e-001  9.177023e-004  1.045287e-001
    outer loop
      vertex  7.100838e-001 -5.000000e-001  1.463079e-001
      vertex  7.250000e-001  0.000000e+000 -2.331807e-016
      vertex  7.091570e-001  0.000000e+000  1.507360e-001
    endloop
  endfacet
  facet normal  9.539069e-001 -8.896113e-004  3.001013e-001
    outer loop
      vertex  7.100838e-001 -5.000000e-001  1.463079e-001
      vertex  7.091570e-001  0.000000e+000  1.507360e-001
      vertex  6.659490e-001 -5.000000e-001  2.865955e-001
    endloop
  endfacet
  facet normal  9.510550e-001  1.779281e-003  3.090165e-001
    outer loop
      vertex  6.659490e-001 -5.000000e-001  2.865955e-001
      vertex  7.091570e-001  0.000000e+000  1.507360e-001
      vertex  6.623204e-001  0.000000e+000  2.948841e-001
    endloop
  endfacet
  facet normal  8.737184e-001 -1.722954e-003  4.864288e-001
    outer loop
      vertex  6.659490e-001 -5.000000e-001  2.865955e-001
      vertex  6.623204e-001  0.000000e+000  2.948841e-001
      vertex  5.944116e-001 -5.000000e-001  4.150902e-001
    endloop
  endfacet
  facet normal  8.660226e-001  2.584569e-003  4.999983e-001
    outer loop
      vertex  5.944116e-001 -5.000000e-001  4.150902e-001
      vertex  6.623204e-001  0.000000e+000  2.948841e-001
      vertex  5.865373e-001  0.000000e+000  4.261443e-001
    endloop
  endfacet
  facet normal  7.575780e-001 -2.500133e-003  6.527399e-001
    outer loop
      vertex  5.944116e-001 -5.000000e-001  4.150902e-001
      vertex  5.865373e-001  0.000000e+000  4.261443e-001
      vertex  4.984153e-001 -5.000000e-001  5.265047e-001
    endloop
  endfacet
  facet normal  7.431407e-001  3.333553e-003  6.691268e-001
    outer loop
      vertex  4.984153e-001 -5.000000e-001  5.265047e-001
      vertex  5.865373e-001  0.000000e+000  4.261443e-001
      vertex  4.851197e-001  0.000000e+000  5.387800e-001
    endloop
  endfacet
  facet normal  6.102647e-001 -3.221071e-003  7.921910e-001
    outer loop
      vertex  4.984153e-001 -5.000000e-001  5.265047e-001
      vertex  4.851197e-001  0.000000e+000  5.387800e-001
      vertex  3.819101e-001 -5.000000e-001  6.162545e-001
    endloop
  endfacet
  facet normal  5.877806e-001  4.026224e-003  8.090104e-001
    outer loop
      vertex  3.819101e-001 -5.000000e-001  6.162545e-001
      vertex  4.851197e-001  0.000000e+000  5.387800e-001
      vertex  3.625000e-001  0.000000e+000  6.278684e-001
    endloop
  endfacet
  facet normal  4.378411e-001 -3.885740e-003  8.990440e-001
    outer loop
      vertex  3.819101e-001 -5.000000e-001  6.162545e-001
      vertex  3.625000e-001  0.000000e+000  6.278684e-001
      vertex  2.496901e-001 -5.000000e-001  6.806467e-001
    endloop
  endfacet
  facet normal  4.067321e-001  4.662768e-003  9.135356e-001
    outer loop
      vertex  2.496901e-001 -5.000000e-001  6.806467e-001
      vertex  3.625000e-001  0.000000e+000  6.278684e-001
      vertex  2.240373e-001  0.000000e+000  6.895159e-001
    endloop
  endfacet
  facet normal  2.474014e-001 -4.493907e-003  9.689026e-001
    outer loop
      vertex  2.496901e-001 -5.000000e-001  6.806467e-001
      vertex  2.240373e-001  0.000000e+000  6.895159e-001
      vertex  1.071957e-001 -5.000000e-001  7.170314e-001
    endloop
  endfacet
  facet normal  2.079091e-001  5.242788e-003  9.781340e-001
    outer loop
      vertex  1.071957e-001 -5.000000e-001  7.170314e-001
      vertex  2.240373e-001  0.000000e+000  6.895159e-001
      vertex  7.578313e-002  0.000000e+000  7.210284e-001
    endloop
  endfacet
  facet normal  4.678296e-002 -5.045933e-003  9.988924e-001
    outer loop
      vertex  1.071957e-001 -5.000000e-001  7.170314e-001
      vertex  7.578313e-002  0.000000e+000  7.210284e-001
      vertex -3.970950e-002 -5.000000e-001  7.239117e-001
    endloop
  endfacet
  facet normal  0.000000e+000  5.766534e-003  9.999834e-001
    outer loop
      vertex -3.970950e-002 -5.000000e-001  7.239117e-001
      vertex  7.578313e-002  0.000000e+000  7.210284e-001
      vertex -7.578313e-002  0.000000e+000  7.210284e-001
    endloop
  endfacet
  facet normal -1.557595e-001 -5.541460e-003  9.877794e-001
    outer loop
      vertex -3.970950e-002 -5.000000e-001  7.239117e-001
      vertex -7.578313e-002  0.000000e+000  7.210284e-001
      vertex -1.849808e-001 -5.000000e-001  7.010044e-001
    endloop
  endfacet
  facet normal -2.079079e-001  6.234011e-003  9.781286e-001
    outer loop
      vertex -1.849808e-001 -5.000000e-001  7.010044e-001
      vertex -7.578313e-002  0.000000e+000  7.210284e-001
      vertex -2.240373e-001  0.000000e+000  6.895159e-001
    endloop
  endfacet
  facet normal -3.518922e-001 -5.980531e-003  9.360215e-001
    outer loop
      vertex -1.849808e-001 -5.000000e-001  7.010044e-001
      vertex -2.240373e-001  0.000000e+000  6.895159e-001
      vertex -3.226404e-001 -5.000000e-001  6.492520e-001
    endloop
  endfacet
  facet normal -4.067275e-001  6.644906e-003  9.135253e-001
    outer loop
      vertex -3.226404e-001 -5.000000e-001  6.492520e-001
      vertex -2.240373e-001  0.000000e+000  6.895159e-001
      vertex -3.625000e-001  0.000000e+000  6.278684e-001
    endloop
  endfacet
  facet normal -5.335436e-001 -6.363388e-003  8.457486e-001
    outer loop
      vertex -3.226404e-001 -5.000000e-001  6.492520e-001
      vertex -3.625000e-001  0.000000e+000  6.278684e-001
      vertex -4.470240e-001 -5.000000e-001  5.707842e-001
    endloop
  endfacet
  facet normal -5.877709e-001  6.999503e-003  8.089971e-001
    outer loop
      vertex -4.470240e-001 -5.000000e-001  5.707842e-001
      vertex -3.625000e-001  0.000000e+000  6.278684e-001
      vertex -4.851197e-001  0.000000e+000  5.387800e-001
    endloop
  endfacet
  facet normal -6.932405e-001 -6.689704e-003  7.206752e-001
    outer loop
      vertex -4.470240e-001 -5.000000e-001  5.707842e-001
      vertex -4.851197e-001  0.000000e+000  5.387800e-001
      vertex -5.530134e-001 -5.000000e-001  4.688295e-001
    endloop
  endfacet
  facet normal -7.431251e-001  7.297637e-003  6.691127e-001
    outer loop
      vertex -5.530134e-001 -5.000000e-001  4.688295e-001
      vertex -4.851197e-001  0.000000e+000  5.387800e-001
      vertex -5.865373e-001  0.000000e+000  4.261443e-001
    endloop
  endfacet
  facet normal -8.244115e-001 -6.959637e-003  5.659482e-001
    outer loop
      vertex -5.530134e-001 -5.000000e-001  4.688295e-001
      vertex -5.865373e-001  0.000000e+000  4.261443e-001
      vertex -6.362473e-001 -5.000000e-001  3.475835e-001
    endloop
  endfacet
  facet normal -8.660008e-001  7.539298e-003  4.999858e-001
    outer loop
      vertex -6.362473e-001 -5.000000e-001  3.475835e-001
      vertex -5.865373e-001  0.000000e+000  4.261443e-001
      vertex -6.623204e-001  0.000000e+000  2.948841e-001
    endloop
  endfacet
  facet normal -9.144315e-001 -5.028195e-003  4.047095e-001
    outer loop
      vertex -6.362473e-001 -5.000000e-001  3.475835e-001
      vertex -6.623204e-001  0.000000e+000  2.948841e-001
      vertex -6.850938e-001 -5.000000e-001  2.372162e-001
    endloop
  endfacet
  facet normal -9.510284e-001  7.676490e-003  3.090079e-001
    outer loop
      vertex -6.850938e-001 -5.000000e-001  2.372162e-001
      vertex -6.623204e-001  0.000000e+000  2.948841e-001
      vertex -7.091570e-001  0.000000e+000  1.507360e-001
    endloop
  endfacet
  facet normal -9.689052e-001 -3.839186e-003  2.474023e-001
    outer loop
      vertex -6.850938e-001 -5.000000e-001  2.372162e-001
      vertex -7.091570e-001  0.000000e+000  1.507360e-001
      vertex -7.149538e-001 -5.000000e-001  1.202747e-001
    endloop
  endfacet
  facet normal -9.945218e-001  0.000000e+000  1.045287e-001
    outer loop
      vertex -7.250000e-001  0.000000e+000  0.000000e+000
      vertex -7.250000e-001 -5.000000e-001  0.000000e+000
      vertex -7.091570e-001  0.000000e+000  1.507360e-001
    endloop
  endfacet
  facet normal -9.965088e-001  6.482311e-003  8.323539e-002
    outer loop
      vertex -7.091570e-001  0.000000e+000  1.507360e-001
      vertex -7.250000e-001 -5.000000e-001  0.000000e+000
      vertex -7.149538e-001 -5.000000e-001  1.202747e-001
    endloop
  endfacet
  facet normal -9.945219e-001  -0.000000e+000 -1.045287e-001
    outer loop
      vertex -7.250000e-001 -2.400000e+001  0.000000e+000
      vertex -7.250000e-001 -6.800000e-001  0.000000e+000
      vertex -7.091570e-001 -2.400000e+001 -1.507360e-001
    endloop
  endfacet
  facet normal -9.948432e-001 -2.027837e-005 -1.014253e-001
    outer loop
      vertex -7.091570e-001 -2.400000e+001 -1.507360e-001
      vertex -7.250000e-001 -6.800000e-001  0.000000e+000
      vertex -7.100838e-001 -6.800000e-001 -1.463079e-001
    endloop
  endfacet
  facet normal -9.510565e-001  2.088024e-005 -3.090170e-001
    outer loop
      vertex -7.091570e-001 -2.400000e+001 -1.507360e-001
      vertex -7.100838e-001 -6.800000e-001 -1.463079e-001
      vertex -6.623204e-001 -2.400000e+001 -2.948841e-001
    endloop
  endfacet
  facet normal -9.539073e-001 -4.176176e-005 -3.001014e-001
    outer loop
      vertex -6.623204e-001 -2.400000e+001 -2.948841e-001
      vertex -7.100838e-001 -6.800000e-001 -1.463079e-001
      vertex -6.659490e-001 -6.800000e-001 -2.865955e-001
    endloop
  endfacet
  facet normal -8.660255e-001  4.296217e-005 -5.000000e-001
    outer loop
      vertex -6.623204e-001 -2.400000e+001 -2.948841e-001
      vertex -6.659490e-001 -6.800000e-001 -2.865955e-001
      vertex -5.865373e-001 -2.400000e+001 -4.261443e-001
    endloop
  endfacet
  facet normal -8.737198e-001 -6.444623e-005 -4.864295e-001
    outer loop
      vertex -5.865373e-001 -2.400000e+001 -4.261443e-001
      vertex -6.659490e-001 -6.800000e-001 -2.865955e-001
      vertex -5.944116e-001 -6.800000e-001 -4.150902e-001
    endloop
  endfacet
  facet normal -7.431449e-001  6.624794e-005 -6.691305e-001
    outer loop
      vertex -5.865373e-001 -2.400000e+001 -4.261443e-001
      vertex -5.944116e-001 -6.800000e-001 -4.150902e-001
      vertex -4.851197e-001 -2.400000e+001 -5.387800e-001
    endloop
  endfacet
  facet normal -7.575803e-001 -8.833146e-005 -6.527418e-001
    outer loop
      vertex -4.851197e-001 -2.400000e+001 -5.387800e-001
      vertex -5.944116e-001 -6.800000e-001 -4.150902e-001
      vertex -4.984153e-001 -6.800000e-001 -5.265047e-001
    endloop
  endfacet
  facet normal -5.877854e-001  9.073562e-005 -8.090169e-001
    outer loop
      vertex -4.851197e-001 -2.400000e+001 -5.387800e-001
      vertex -4.984153e-001 -6.800000e-001 -5.265047e-001
      vertex -3.625000e-001 -2.400000e+001 -6.278684e-001
    endloop
  endfacet
  facet normal -6.102679e-001 -1.134170e-004 -7.921951e-001
    outer loop
      vertex -3.625000e-001 -2.400000e+001 -6.278684e-001
      vertex -4.984153e-001 -6.800000e-001 -5.265047e-001
      vertex -3.819101e-001 -6.800000e-001 -6.162545e-001
    endloop
  endfacet
  facet normal -4.067365e-001  1.164251e-004 -9.135455e-001
    outer loop
      vertex -3.625000e-001 -2.400000e+001 -6.278684e-001
      vertex -3.819101e-001 -6.800000e-001 -6.162545e-001
      vertex -2.240373e-001 -2.400000e+001 -6.895159e-001
    endloop
  endfacet
  facet normal -4.378444e-001 -1.397072e-004 -8.990507e-001
    outer loop
      vertex -2.240373e-001 -2.400000e+001 -6.895159e-001
      vertex -3.819101e-001 -6.800000e-001 -6.162545e-001
      vertex -2.496901e-001 -6.800000e-001 -6.806467e-001
    endloop
  endfacet
  facet normal -2.079119e-001  1.433088e-004 -9.781476e-001
    outer loop
      vertex -2.240373e-001 -2.400000e+001 -6.895159e-001
      vertex -2.496901e-001 -6.800000e-001 -6.806467e-001
      vertex -7.578313e-002 -2.400000e+001 -7.210284e-001
    endloop
  endfacet
  facet normal -2.474038e-001 -1.671907e-004 -9.689124e-001
    outer loop
      vertex -7.578313e-002 -2.400000e+001 -7.210284e-001
      vertex -2.496901e-001 -6.800000e-001 -6.806467e-001
      vertex -1.071957e-001 -6.800000e-001 -7.170314e-001
    endloop
  endfacet
  facet normal  0.000000e+000  1.713966e-004 -1.000000e+000
    outer loop
      vertex -7.578313e-002 -2.400000e+001 -7.210284e-001
      vertex -1.071957e-001 -6.800000e-001 -7.170314e-001
      vertex  7.578313e-002 -2.400000e+001 -7.210284e-001
    endloop
  endfacet
  facet normal -4.678356e-002 -1.958753e-004 -9.989051e-001
    outer loop
      vertex  7.578313e-002 -2.400000e+001 -7.210284e-001
      vertex -1.071957e-001 -6.800000e-001 -7.170314e-001
      vertex  3.970950e-002 -6.800000e-001 -7.239117e-001
    endloop
  endfacet
  facet normal  2.079119e-001  2.006788e-004 -9.781476e-001
    outer loop
      vertex  7.578313e-002 -2.400000e+001 -7.210284e-001
      vertex  3.970950e-002 -6.800000e-001 -7.239117e-001
      vertex  2.240373e-001 -2.400000e+001 -6.895159e-001
    endloop
  endfacet
  facet normal  1.557619e-001 -2.257589e-004 -9.877946e-001
    outer loop
      vertex  2.240373e-001 -2.400000e+001 -6.895159e-001
      vertex  3.970950e-002 -6.800000e-001 -7.239117e-001
      vertex  1.849808e-001 -6.800000e-001 -7.010044e-001
    endloop
  endfacet
  facet normal  4.067365e-001  2.311539e-004 -9.135455e-001
    outer loop
      vertex  2.240373e-001 -2.400000e+001 -6.895159e-001
      vertex  1.849808e-001 -6.800000e-001 -7.010044e-001
      vertex  3.625000e-001 -2.400000e+001 -6.278684e-001
    endloop
  endfacet
  facet normal  3.518984e-001 -2.568320e-004 -9.360381e-001
    outer loop
      vertex  3.625000e-001 -2.400000e+001 -6.278684e-001
      vertex  1.849808e-001 -6.800000e-001 -7.010044e-001
      vertex  3.226404e-001 -6.800000e-001 -6.492520e-001
    endloop
  endfacet
  facet normal  5.877854e-001  2.628303e-004 -8.090169e-001
    outer loop
      vertex  3.625000e-001 -2.400000e+001 -6.278684e-001
      vertex  3.226404e-001 -6.800000e-001 -6.492520e-001
      vertex  4.851197e-001 -2.400000e+001 -5.387800e-001
    endloop
  endfacet
  facet normal  5.335544e-001 -2.891045e-004 -8.457657e-001
    outer loop
      vertex  4.851197e-001 -2.400000e+001 -5.387800e-001
      vertex  3.226404e-001 -6.800000e-001 -6.492520e-001
      vertex  4.470240e-001 -6.800000e-001 -5.707842e-001
    endloop
  endfacet
  facet normal  7.431449e-001  2.956963e-004 -6.691305e-001
    outer loop
      vertex  4.851197e-001 -2.400000e+001 -5.387800e-001
      vertex  4.470240e-001 -6.800000e-001 -5.707842e-001
      vertex  5.865373e-001 -2.400000e+001 -4.261443e-001
    endloop
  endfacet
  facet normal  6.932560e-001 -3.225672e-004 -7.206913e-001
    outer loop
      vertex  5.865373e-001 -2.400000e+001 -4.261443e-001
      vertex  4.470240e-001 -6.800000e-001 -5.707842e-001
      vertex  5.530134e-001 -6.800000e-001 -4.688295e-001
    endloop
  endfacet
  facet normal  8.660254e-001  3.297553e-004 -5.000000e-001
    outer loop
      vertex  5.865373e-001 -2.400000e+001 -4.261443e-001
      vertex  5.530134e-001 -6.800000e-001 -4.688295e-001
      vertex  6.623204e-001 -2.400000e+001 -2.948841e-001
    endloop
  endfacet
  facet normal  8.244314e-001 -3.572211e-004 -5.659618e-001
    outer loop
      vertex  6.623204e-001 -2.400000e+001 -2.948841e-001
      vertex  5.530134e-001 -6.800000e-001 -4.688295e-001
      vertex  6.362473e-001 -6.800000e-001 -3.475835e-001
    endloop
  endfacet
  facet normal  9.510565e-001  3.650070e-004 -3.090170e-001
    outer loop
      vertex  6.623204e-001 -2.400000e+001 -2.948841e-001
      vertex  6.362473e-001 -6.800000e-001 -3.475835e-001
      vertex  7.091570e-001 -2.400000e+001 -1.507360e-001
    endloop
  endfacet
  facet normal  9.144429e-001 -5.572614e-004 -4.047145e-001
    outer loop
      vertex  7.091570e-001 -2.400000e+001 -1.507360e-001
      vertex  6.362473e-001 -6.800000e-001 -3.475835e-001
      vertex  6.850938e-001 -6.800000e-001 -2.372162e-001
    endloop
  endfacet
  facet normal  9.689123e-001  8.231591e-005 -2.474041e-001
    outer loop
      vertex  7.091570e-001 -2.400000e+001 -1.507360e-001
      vertex  6.850938e-001 -6.800000e-001 -2.372162e-001
      vertex  7.149538e-001 -6.800000e-001 -1.202747e-001
    endloop
  endfacet
  facet normal  9.965297e-001 -1.389890e-004 -8.323713e-002
    outer loop
      vertex  7.149538e-001 -6.800000e-001 -1.202747e-001
      vertex  7.250000e-001 -6.800000e-001  1.775679e-016
      vertex  7.091570e-001 -2.400000e+001 -1.507360e-001
    endloop
  endfacet
  facet normal  9.945219e-001  0.000000e+000 -1.045287e-001
    outer loop
      vertex  7.091570e-001 -2.400000e+001 -1.507360e-001
      vertex  7.250000e-001 -6.800000e-001  1.775679e-016
      vertex  7.250000e-001 -2.400000e+001 -2.331807e-016
    endloop
  endfacet
  facet normal -9.948432e-001  -0.000000e+000 -1.014253e-001
    outer loop
      vertex -7.250000e-001 -5.000000e-001  0.000000e+000
      vertex -7.250000e-001  0.000000e+000  0.000000e+000
      vertex -7.100838e-001 -5.000000e-001 -1.463079e-001
    endloop
  endfacet
  facet normal -9.945214e-001  9.177023e-004 -1.045287e-001
    outer loop
      vertex -7.100838e-001 -5.000000e-001 -1.463079e-001
      vertex -7.250000e-001  0.000000e+000  0.000000e+000
      vertex -7.091570e-001  0.000000e+000 -1.507360e-001
    endloop
  endfacet
  facet normal -9.539069e-001 -8.896113e-004 -3.001013e-001
    outer loop
      vertex -7.100838e-001 -5.000000e-001 -1.463079e-001
      vertex -7.091570e-001  0.000000e+000 -1.507360e-001
      vertex -6.659490e-001 -5.000000e-001 -2.865955e-001
    endloop
  endfacet
  facet normal -9.510550e-001  1.779281e-003 -3.090165e-001
    outer loop
      vertex -6.659490e-001 -5.000000e-001 -2.865955e-001
      vertex -7.091570e-001  0.000000e+000 -1.507360e-001
      vertex -6.623204e-001  0.000000e+000 -2.948841e-001
    endloop
  endfacet
  facet normal -8.737184e-001 -1.722954e-003 -4.864288e-001
    outer loop
      vertex -6.659490e-001 -5.000000e-001 -2.865955e-001
      vertex -6.623204e-001  0.000000e+000 -2.948841e-001
      vertex -5.944116e-001 -5.000000e-001 -4.150902e-001
    endloop
  endfacet
  facet normal -8.660226e-001  2.584569e-003 -4.999983e-001
    outer loop
      vertex -5.944116e-001 -5.000000e-001 -4.150902e-001
      vertex -6.623204e-001  0.000000e+000 -2.948841e-001
      vertex -5.865373e-001  0.000000e+000 -4.261443e-001
    endloop
  endfacet
  facet normal -7.575780e-001 -2.500133e-003 -6.527399e-001
    outer loop
      vertex -5.944116e-001 -5.000000e-001 -4.150902e-001
      vertex -5.865373e-001  0.000000e+000 -4.261443e-001
      vertex -4.984153e-001 -5.000000e-001 -5.265047e-001
    endloop
  endfacet
  facet normal -7.431407e-001  3.333553e-003 -6.691268e-001
    outer loop
      vertex -4.984153e-001 -5.000000e-001 -5.265047e-001
      vertex -5.865373e-001  0.000000e+000 -4.261443e-001
      vertex -4.851197e-001  0.000000e+000 -5.387800e-001
    endloop
  endfacet
  facet normal -6.102647e-001 -3.221071e-003 -7.921910e-001
    outer loop
      vertex -4.984153e-001 -5.000000e-001 -5.265047e-001
      vertex -4.851197e-001  0.000000e+000 -5.387800e-001
      vertex -3.819101e-001 -5.000000e-001 -6.162545e-001
    endloop
  endfacet
  facet normal -5.877806e-001  4.026224e-003 -8.090104e-001
    outer loop
      vertex -3.819101e-001 -5.000000e-001 -6.162545e-001
      vertex -4.851197e-001  0.000000e+000 -5.387800e-001
      vertex -3.625000e-001  0.000000e+000 -6.278684e-001
    endloop
  endfacet
  facet normal -4.378411e-001 -3.885740e-003 -8.990440e-001
    outer loop
      vertex -3.819101e-001 -5.000000e-001 -6.162545e-001
      vertex -3.625000e-001  0.000000e+000 -6.278684e-001
      vertex -2.496901e-001 -5.000000e-001 -6.806467e-001
    endloop
  endfacet
  facet normal -4.067321e-001  4.662768e-003 -9.135356e-001
    outer loop
      vertex -2.496901e-001 -5.000000e-001 -6.806467e-001
      vertex -3.625000e-001  0.000000e+000 -6.278684e-001
      vertex -2.240373e-001  0.000000e+000 -6.895159e-001
    endloop
  endfacet
  facet normal -2.474014e-001 -4.493907e-003 -9.689026e-001
    outer loop
      vertex -2.496901e-001 -5.000000e-001 -6.806467e-001
      vertex -2.240373e-001  0.000000e+000 -6.895159e-001
      vertex -1.071957e-001 -5.000000e-001 -7.170314e-001
    endloop
  endfacet
  facet normal -2.079091e-001  5.242788e-003 -9.781340e-001
    outer loop
      vertex -1.071957e-001 -5.000000e-001 -7.170314e-001
      vertex -2.240373e-001  0.000000e+000 -6.895159e-001
      vertex -7.578313e-002  0.000000e+000 -7.210284e-001
    endloop
  endfacet
  facet normal -4.678296e-002 -5.045933e-003 -9.988924e-001
    outer loop
      vertex -1.071957e-001 -5.000000e-001 -7.170314e-001
      vertex -7.578313e-002  0.000000e+000 -7.210284e-001
      vertex  3.970950e-002 -5.000000e-001 -7.239117e-001
    endloop
  endfacet
  facet normal  0.000000e+000  5.766534e-003 -9.999834e-001
    outer loop
      vertex  3.970950e-002 -5.000000e-001 -7.239117e-001
      vertex -7.578313e-002  0.000000e+000 -7.210284e-001
      vertex  7.578313e-002  0.000000e+000 -7.210284e-001
    endloop
  endfacet
  facet normal  1.557595e-001 -5.541460e-003 -9.877794e-001
    outer loop
      vertex  3.970950e-002 -5.000000e-001 -7.239117e-001
      vertex  7.578313e-002  0.000000e+000 -7.210284e-001
      vertex  1.849808e-001 -5.000000e-001 -7.010044e-001
    endloop
  endfacet
  facet normal  2.079079e-001  6.234011e-003 -9.781286e-001
    outer loop
      vertex  1.849808e-001 -5.000000e-001 -7.010044e-001
      vertex  7.578313e-002  0.000000e+000 -7.210284e-001
      vertex  2.240373e-001  0.000000e+000 -6.895159e-001
    endloop
  endfacet
  facet normal  3.518922e-001 -5.980531e-003 -9.360215e-001
    outer loop
      vertex  1.849808e-001 -5.000000e-001 -7.010044e-001
      vertex  2.240373e-001  0.000000e+000 -6.895159e-001
      vertex  3.226404e-001 -5.000000e-001 -6.492520e-001
    endloop
  endfacet
  facet normal  4.067275e-001  6.644906e-003 -9.135253e-001
    outer loop
      vertex  3.226404e-001 -5.000000e-001 -6.492520e-001
      vertex  2.240373e-001  0.000000e+000 -6.895159e-001
      vertex  3.625000e-001  0.000000e+000 -6.278684e-001
    endloop
  endfacet
  facet normal  5.335436e-001 -6.363388e-003 -8.457486e-001
    outer loop
      vertex  3.226404e-001 -5.000000e-001 -6.492520e-001
      vertex  3.625000e-001  0.000000e+000 -6.278684e-001
      vertex  4.470240e-001 -5.000000e-001 -5.707842e-001
    endloop
  endfacet
  facet normal  5.877709e-001  6.999503e-003 -8.089971e-001
    outer loop
      vertex  4.470240e-001 -5.000000e-001 -5.707842e-001
      vertex  3.625000e-001  0.000000e+000 -6.278684e-001
      vertex  4.851197e-001  0.000000e+000 -5.387800e-001
    endloop
  endfacet
  facet normal  6.932405e-001 -6.689704e-003 -7.206752e-001
    outer loop
      vertex  4.470240e-001 -5.000000e-001 -5.707842e-001
      vertex  4.851197e-001  0.000000e+000 -5.387800e-001
      vertex  5.530134e-001 -5.000000e-001 -4.688295e-001
    endloop
  endfacet
  facet normal  7.431251e-001  7.297637e-003 -6.691127e-001
    outer loop
      vertex  5.530134e-001 -5.000000e-001 -4.688295e-001
      vertex  4.851197e-001  0.000000e+000 -5.387800e-001
      vertex  5.865373e-001  0.000000e+000 -4.261443e-001
    endloop
  endfacet
  facet normal  8.244115e-001 -6.959637e-003 -5.659482e-001
    outer loop
      vertex  5.530134e-001 -5.000000e-001 -4.688295e-001
      vertex  5.865373e-001  0.000000e+000 -4.261443e-001
      vertex  6.362473e-001 -5.000000e-001 -3.475835e-001
    endloop
  endfacet
  facet normal  8.660008e-001  7.539298e-003 -4.999858e-001
    outer loop
      vertex  6.362473e-001 -5.000000e-001 -3.475835e-001
      vertex  5.865373e-001  0.000000e+000 -4.261443e-001
      vertex  6.623204e-001  0.000000e+000 -2.948841e-001
    endloop
  endfacet
  facet normal  9.144315e-001 -5.028195e-003 -4.047095e-001
    outer loop
      vertex  6.362473e-001 -5.000000e-001 -3.475835e-001
      vertex  6.623204e-001  0.000000e+000 -2.948841e-001
      vertex  6.850938e-001 -5.000000e-001 -2.372162e-001
    endloop
  endfacet
  facet normal  9.510284e-001  7.676490e-003 -3.090079e-001
    outer loop
      vertex  6.850938e-001 -5.000000e-001 -2.372162e-001
      vertex  6.623204e-001  0.000000e+000 -2.948841e-001
      vertex  7.091570e-001  0.000000e+000 -1.507360e-001
    endloop
  endfacet
  facet normal  9.689052e-001 -3.839186e-003 -2.474023e-001
    outer loop
      vertex  6.850938e-001 -5.000000e-001 -2.372162e-001
      vertex  7.091570e-001  0.000000e+000 -1.507360e-001
      vertex  7.149538e-001 -5.000000e-001 -1.202747e-001
    endloop
  endfacet
  facet normal  9.945218e-001 -8.587008e-017 -1.045287e-001
    outer loop
      vertex  7.250000e-001  0.000000e+000 -2.331807e-016
      vertex  7.250000e-001 -5.000000e-001  1.775679e-016
      vertex  7.091570e-001  0.000000e+000 -1.507360e-001
    endloop
  endfacet
  facet normal  9.965088e-001  6.482311e-003 -8.323539e-002
    outer loop
      vertex  7.091570e-001  0.000000e+000 -1.507360e-001
      vertex  7.250000e-001 -5.000000e-001  1.775679e-016
      vertex  7.149538e-001 -5.000000e-001 -1.202747e-001
    endloop
  endfacet
  facet normal  9.257431e-001  0.000000e+000 -3.781531e-001
    outer loop
      vertex  5.265495e-001 -6.800000e-001 -2.876553e-001
      vertex  5.265495e-001 -5.000000e-001 -2.876553e-001
      vertex  5.773572e-001 -6.800000e-001 -1.632749e-001
    endloop
  endfacet
  facet normal  9.257431e-001  0.000000e+000 -3.781531e-001
    outer loop
      vertex  5.773572e-001 -6.800000e-001 -1.632749e-001
      vertex  5.265495e-001 -5.000000e-001 -2.876553e-001
      vertex  5.773572e-001 -5.000000e-001 -1.632749e-001
    endloop
  endfacet
  facet normal  9.866798e-001  0.000000e+000 -1.626747e-001
    outer loop
      vertex  5.773572e-001 -6.800000e-001 -1.632749e-001
      vertex  5.773572e-001 -5.000000e-001 -1.632749e-001
      vertex  5.992137e-001 -6.800000e-001 -3.070721e-002
    endloop
  endfacet
  facet normal  9.866798e-001  0.000000e+000 -1.626747e-001
    outer loop
      vertex  5.992137e-001 -6.800000e-001 -3.070721e-002
      vertex  5.773572e-001 -5.000000e-001 -1.632749e-001
      vertex  5.992137e-001 -5.000000e-001 -3.070721e-002
    endloop
  endfacet
  facet normal  9.981402e-001  0.000000e+000  6.096110e-002
    outer loop
      vertex  5.992137e-001 -6.800000e-001 -3.070721e-002
      vertex  5.992137e-001 -5.000000e-001 -3.070721e-002
      vertex  5.910231e-001 -6.800000e-001  1.034003e-001
    endloop
  endfacet
  facet normal  9.981402e-001  -0.000000e+000  6.096110e-002
    outer loop
      vertex  5.910231e-001 -6.800000e-001  1.034003e-001
      vertex  5.992137e-001 -5.000000e-001 -3.070721e-002
      vertex  5.910231e-001 -5.000000e-001  1.034003e-001
    endloop
  endfacet
  facet normal  9.595497e-001  0.000000e+000  2.815394e-001
    outer loop
      vertex  5.910231e-001 -6.800000e-001  1.034003e-001
      vertex  5.910231e-001 -5.000000e-001  1.034003e-001
      vertex  5.531963e-001 -6.800000e-001  2.323228e-001
    endloop
  endfacet
  facet normal  9.595497e-001  -0.000000e+000  2.815394e-001
    outer loop
      vertex  5.531963e-001 -6.800000e-001  2.323228e-001
      vertex  5.910231e-001 -5.000000e-001  1.034003e-001
      vertex  5.531963e-001 -5.000000e-001  2.323228e-001
    endloop
  endfacet
  facet normal  8.728433e-001  0.000000e+000  4.880006e-001
    outer loop
      vertex  5.531963e-001 -6.800000e-001  2.323228e-001
      vertex  5.531963e-001 -5.000000e-001  2.323228e-001
      vertex  4.876298e-001 -6.800000e-001  3.495958e-001
    endloop
  endfacet
  facet normal  8.728433e-001  -0.000000e+000  4.880006e-001
    outer loop
      vertex  4.876298e-001 -6.800000e-001  3.495958e-001
      vertex  5.531963e-001 -5.000000e-001  2.323228e-001
      vertex  4.876298e-001 -5.000000e-001  3.495958e-001
    endloop
  endfacet
  facet normal  7.423688e-001  0.000000e+000  6.699914e-001
    outer loop
      vertex  4.876298e-001 -6.800000e-001  3.495958e-001
      vertex  4.876298e-001 -5.000000e-001  3.495958e-001
      vertex  3.976115e-001 -6.800000e-001  4.493385e-001
    endloop
  endfacet
  facet normal  7.423688e-001  -0.000000e+000  6.699914e-001
    outer loop
      vertex  3.976115e-001 -6.800000e-001  4.493385e-001
      vertex  4.876298e-001 -5.000000e-001  3.495958e-001
      vertex  3.976115e-001 -5.000000e-001  4.493385e-001
    endloop
  endfacet
  facet normal  5.746691e-001  0.000000e+000  8.183859e-001
    outer loop
      vertex  3.976115e-001 -6.800000e-001  4.493385e-001
      vertex  3.976115e-001 -5.000000e-001  4.493385e-001
      vertex  2.876553e-001 -6.800000e-001  5.265495e-001
    endloop
  endfacet
  facet normal  5.746691e-001  -0.000000e+000  8.183859e-001
    outer loop
      vertex  2.876553e-001 -6.800000e-001  5.265495e-001
      vertex  3.976115e-001 -5.000000e-001  4.493385e-001
      vertex  2.876553e-001 -5.000000e-001  5.265495e-001
    endloop
  endfacet
  facet normal  3.781531e-001  0.000000e+000  9.257431e-001
    outer loop
      vertex  2.876553e-001 -6.800000e-001  5.265495e-001
      vertex  2.876553e-001 -5.000000e-001  5.265495e-001
      vertex  1.632749e-001 -6.800000e-001  5.773572e-001
    endloop
  endfacet
  facet normal  3.781531e-001  -0.000000e+000  9.257431e-001
    outer loop
      vertex  1.632749e-001 -6.800000e-001  5.773572e-001
      vertex  2.876553e-001 -5.000000e-001  5.265495e-001
      vertex  1.632749e-001 -5.000000e-001  5.773572e-001
    endloop
  endfacet
  facet normal  1.626747e-001  0.000000e+000  9.866798e-001
    outer loop
      vertex  1.632749e-001 -6.800000e-001  5.773572e-001
      vertex  1.632749e-001 -5.000000e-001  5.773572e-001
      vertex  3.070721e-002 -6.800000e-001  5.992137e-001
    endloop
  endfacet
  facet normal  1.626747e-001  -0.000000e+000  9.866798e-001
    outer loop
      vertex  3.070721e-002 -6.800000e-001  5.992137e-001
      vertex  1.632749e-001 -5.000000e-001  5.773572e-001
      vertex  3.070721e-002 -5.000000e-001  5.992137e-001
    endloop
  endfacet
  facet normal -6.096110e-002  0.000000e+000  9.981402e-001
    outer loop
      vertex  3.070721e-002 -6.800000e-001  5.992137e-001
      vertex  3.070721e-002 -5.000000e-001  5.992137e-001
      vertex -1.034003e-001 -6.800000e-001  5.910231e-001
    endloop
  endfacet
  facet normal -6.096110e-002  0.000000e+000  9.981402e-001
    outer loop
      vertex -1.034003e-001 -6.800000e-001  5.910231e-001
      vertex  3.070721e-002 -5.000000e-001  5.992137e-001
      vertex -1.034003e-001 -5.000000e-001  5.910231e-001
    endloop
  endfacet
  facet normal -2.815394e-001  0.000000e+000  9.595497e-001
    outer loop
      vertex -1.034003e-001 -6.800000e-001  5.910231e-001
      vertex -1.034003e-001 -5.000000e-001  5.910231e-001
      vertex -2.323228e-001 -6.800000e-001  5.531963e-001
    endloop
  endfacet
  facet normal -2.815394e-001  0.000000e+000  9.595497e-001
    outer loop
      vertex -2.323228e-001 -6.800000e-001  5.531963e-001
      vertex -1.034003e-001 -5.000000e-001  5.910231e-001
      vertex -2.323228e-001 -5.000000e-001  5.531963e-001
    endloop
  endfacet
  facet normal -4.880006e-001  0.000000e+000  8.728433e-001
    outer loop
      vertex -2.323228e-001 -6.800000e-001  5.531963e-001
      vertex -2.323228e-001 -5.000000e-001  5.531963e-001
      vertex -3.495958e-001 -6.800000e-001  4.876298e-001
    endloop
  endfacet
  facet normal -4.880006e-001  0.000000e+000  8.728433e-001
    outer loop
      vertex -3.495958e-001 -6.800000e-001  4.876298e-001
      vertex -2.323228e-001 -5.000000e-001  5.531963e-001
      vertex -3.495958e-001 -5.000000e-001  4.876298e-001
    endloop
  endfacet
  facet normal -6.699914e-001  0.000000e+000  7.423688e-001
    outer loop
      vertex -3.495958e-001 -6.800000e-001  4.876298e-001
      vertex -3.495958e-001 -5.000000e-001  4.876298e-001
      vertex -4.493385e-001 -6.800000e-001  3.976115e-001
    endloop
  endfacet
  facet normal -6.699914e-001  0.000000e+000  7.423688e-001
    outer loop
      vertex -4.493385e-001 -6.800000e-001  3.976115e-001
      vertex -3.495958e-001 -5.000000e-001  4.876298e-001
      vertex -4.493385e-001 -5.000000e-001  3.976115e-001
    endloop
  endfacet
  facet normal -8.183859e-001  0.000000e+000  5.746691e-001
    outer loop
      vertex -4.493385e-001 -6.800000e-001  3.976115e-001
      vertex -4.493385e-001 -5.000000e-001  3.976115e-001
      vertex -5.265495e-001 -6.800000e-001  2.876553e-001
    endloop
  endfacet
  facet normal -8.183859e-001  0.000000e+000  5.746691e-001
    outer loop
      vertex -5.265495e-001 -6.800000e-001  2.876553e-001
      vertex -4.493385e-001 -5.000000e-001  3.976115e-001
      vertex -5.265495e-001 -5.000000e-001  2.876553e-001
    endloop
  endfacet
  facet normal -9.257431e-001  0.000000e+000  3.781531e-001
    outer loop
      vertex -5.265495e-001 -6.800000e-001  2.876553e-001
      vertex -5.265495e-001 -5.000000e-001  2.876553e-001
      vertex -5.773572e-001 -6.800000e-001  1.632749e-001
    endloop
  endfacet
  facet normal -9.257431e-001  0.000000e+000  3.781531e-001
    outer loop
      vertex -5.773572e-001 -6.800000e-001  1.632749e-001
      vertex -5.265495e-001 -5.000000e-001  2.876553e-001
      vertex -5.773572e-001 -5.000000e-001  1.632749e-001
    endloop
  endfacet
  facet normal -9.866798e-001  0.000000e+000  1.626747e-001
    outer loop
      vertex -5.773572e-001 -6.800000e-001  1.632749e-001
      vertex -5.773572e-001 -5.000000e-001  1.632749e-001
      vertex -5.992137e-001 -6.800000e-001  3.070721e-002
    endloop
  endfacet
  facet normal -9.866798e-001  0.000000e+000  1.626747e-001
    outer loop
      vertex -5.992137e-001 -6.800000e-001  3.070721e-002
      vertex -5.773572e-001 -5.000000e-001  1.632749e-001
      vertex -5.992137e-001 -5.000000e-001  3.070721e-002
    endloop
  endfacet
  facet normal -9.981402e-001  -0.000000e+000 -6.096110e-002
    outer loop
      vertex -5.992137e-001 -6.800000e-001  3.070721e-002
      vertex -5.992137e-001 -5.000000e-001  3.070721e-002
      vertex -5.910231e-001 -6.800000e-001 -1.034003e-001
    endloop
  endfacet
  facet normal -9.981402e-001  0.000000e+000 -6.096110e-002
    outer loop
      vertex -5.910231e-001 -6.800000e-001 -1.034003e-001
      vertex -5.992137e-001 -5.000000e-001  3.070721e-002
      vertex -5.910231e-001 -5.000000e-001 -1.034003e-001
    endloop
  endfacet
  facet normal -9.595497e-001  -0.000000e+000 -2.815394e-001
    outer loop
      vertex -5.910231e-001 -6.800000e-001 -1.034003e-001
      vertex -5.910231e-001 -5.000000e-001 -1.034003e-001
      vertex -5.531963e-001 -6.800000e-001 -2.323228e-001
    endloop
  endfacet
  facet normal -9.595497e-001  0.000000e+000 -2.815394e-001
    outer loop
      vertex -5.531963e-001 -6.800000e-001 -2.323228e-001
      vertex -5.910231e-001 -5.000000e-001 -1.034003e-001
      vertex -5.531963e-001 -5.000000e-001 -2.323228e-001
    endloop
  endfacet
  facet normal -8.728433e-001  -0.000000e+000 -4.880006e-001
    outer loop
      vertex -5.531963e-001 -6.800000e-001 -2.323228e-001
      vertex -5.531963e-001 -5.000000e-001 -2.323228e-001
      vertex -4.876298e-001 -6.800000e-001 -3.495958e-001
    endloop
  endfacet
  facet normal -8.728433e-001  0.000000e+000 -4.880006e-001
    outer loop
      vertex -4.876298e-001 -6.800000e-001 -3.495958e-001
      vertex -5.531963e-001 -5.000000e-001 -2.323228e-001
      vertex -4.876298e-001 -5.000000e-001 -3.495958e-001
    endloop
  endfacet
  facet normal -7.423688e-001  -0.000000e+000 -6.699914e-001
    outer loop
      vertex -4.876298e-001 -6.800000e-001 -3.495958e-001
      vertex -4.876298e-001 -5.000000e-001 -3.495958e-001
      vertex -3.976115e-001 -6.800000e-001 -4.493385e-001
    endloop
  endfacet
  facet normal -7.423688e-001  0.000000e+000 -6.699914e-001
    outer loop
      vertex -3.976115e-001 -6.800000e-001 -4.493385e-001
      vertex -4.876298e-001 -5.000000e-001 -3.495958e-001
      vertex -3.976115e-001 -5.000000e-001 -4.493385e-001
    endloop
  endfacet
  facet normal -5.746691e-001  -0.000000e+000 -8.183859e-001
    outer loop
      vertex -3.976115e-001 -6.800000e-001 -4.493385e-001
      vertex -3.976115e-001 -5.000000e-001 -4.493385e-001
      vertex -2.876553e-001 -6.800000e-001 -5.265495e-001
    endloop
  endfacet
  facet normal -5.746691e-001  0.000000e+000 -8.183859e-001
    outer loop
      vertex -2.876553e-001 -6.800000e-001 -5.265495e-001
      vertex -3.976115e-001 -5.000000e-001 -4.493385e-001
      vertex -2.876553e-001 -5.000000e-001 -5.265495e-001
    endloop
  endfacet
  facet normal -3.781531e-001  -0.000000e+000 -9.257431e-001
    outer loop
      vertex -2.876553e-001 -6.800000e-001 -5.265495e-001
      vertex -2.876553e-001 -5.000000e-001 -5.265495e-001
      vertex -1.632749e-001 -6.800000e-001 -5.773572e-001
    endloop
  endfacet
  facet normal -3.781531e-001  0.000000e+000 -9.257431e-001
    outer loop
      vertex -1.632749e-001 -6.800000e-001 -5.773572e-001
      vertex -2.876553e-001 -5.000000e-001 -5.265495e-001
      vertex -1.632749e-001 -5.000000e-001 -5.773572e-001
    endloop
  endfacet
  facet normal -1.626747e-001  -0.000000e+000 -9.866798e-001
    outer loop
      vertex -1.632749e-001 -6.800000e-001 -5.773572e-001
      vertex -1.632749e-001 -5.000000e-001 -5.773572e-001
      vertex -3.070721e-002 -6.800000e-001 -5.992137e-001
    endloop
  endfacet
  facet normal -1.626747e-001  0.000000e+000 -9.866798e-001
    outer loop
      vertex -3.070721e-002 -6.800000e-001 -5.992137e-001
      vertex -1.632749e-001 -5.000000e-001 -5.773572e-001
      vertex -3.070721e-002 -5.000000e-001 -5.992137e-001
    endloop
  endfacet
  facet normal  6.096110e-002  0.000000e+000 -9.981402e-001
    outer loop
      vertex -3.070721e-002 -6.800000e-001 -5.992137e-001
      vertex -3.070721e-002 -5.000000e-001 -5.992137e-001
      vertex  1.034003e-001 -6.800000e-001 -5.910231e-001
    endloop
  endfacet
  facet normal  6.096110e-002  0.000000e+000 -9.981402e-001
    outer loop
      vertex  1.034003e-001 -6.800000e-001 -5.910231e-001
      vertex -3.070721e-002 -5.000000e-001 -5.992137e-001
      vertex  1.034003e-001 -5.000000e-001 -5.910231e-001
    endloop
  endfacet
  facet normal  2.815394e-001  0.000000e+000 -9.595497e-001
    outer loop
      vertex  1.034003e-001 -6.800000e-001 -5.910231e-001
      vertex  1.034003e-001 -5.000000e-001 -5.910231e-001
      vertex  2.323228e-001 -6.800000e-001 -5.531963e-001
    endloop
  endfacet
  facet normal  2.815394e-001  0.000000e+000 -9.595497e-001
    outer loop
      vertex  2.323228e-001 -6.800000e-001 -5.531963e-001
      vertex  1.034003e-001 -5.000000e-001 -5.910231e-001
      vertex  2.323228e-001 -5.000000e-001 -5.531963e-001
    endloop
  endfacet
  facet normal  4.880006e-001  0.000000e+000 -8.728433e-001
    outer loop
      vertex  2.323228e-001 -6.800000e-001 -5.531963e-001
      vertex  2.323228e-001 -5.000000e-001 -5.531963e-001
      vertex  3.495958e-001 -6.800000e-001 -4.876298e-001
    endloop
  endfacet
  facet normal  4.880006e-001  0.000000e+000 -8.728433e-001
    outer loop
      vertex  3.495958e-001 -6.800000e-001 -4.876298e-001
      vertex  2.323228e-001 -5.000000e-001 -5.531963e-001
      vertex  3.495958e-001 -5.000000e-001 -4.876298e-001
    endloop
  endfacet
  facet normal  6.699914e-001  0.000000e+000 -7.423688e-001
    outer loop
      vertex  3.495958e-001 -6.800000e-001 -4.876298e-001
      vertex  3.495958e-001 -5.000000e-001 -4.876298e-001
      vertex  4.493385e-001 -6.800000e-001 -3.976115e-001
    endloop
  endfacet
  facet normal  6.699914e-001  0.000000e+000 -7.423688e-001
    outer loop
      vertex  4.493385e-001 -6.800000e-001 -3.976115e-001
      vertex  3.495958e-001 -5.000000e-001 -4.876298e-001
      vertex  4.493385e-001 -5.000000e-001 -3.976115e-001
    endloop
  endfacet
  facet normal  8.183859e-001  0.000000e+000 -5.746691e-001
    outer loop
      vertex  4.493385e-001 -6.800000e-001 -3.976115e-001
      vertex  4.493385e-001 -5.000000e-001 -3.976115e-001
      vertex  5.265495e-001 -6.800000e-001 -2.876553e-001
    endloop
  endfacet
  facet normal  8.183859e-001  0.000000e+000 -5.746691e-001
    outer loop
      vertex  5.265495e-001 -6.800000e-001 -2.876553e-001
      vertex  4.493385e-001 -5.000000e-001 -3.976115e-001
      vertex  5.265495e-001 -5.000000e-001 -2.876553e-001
    endloop
  endfacet
  facet normal  -0.000000e+000 -1.000000e+000  0.000000e+000
    outer loop
      vertex -7.250000e-001 -2.400000e+001  0.000000e+000
      vertex  7.091570e-001 -2.400000e+001  1.507360e-001
      vertex -7.091570e-001 -2.400000e+001  1.507360e-001
    endloop
  endfacet
  facet normal  0.000000e+000 -9.999999e-001  0.000000e+000
    outer loop
      vertex -7.091570e-001 -2.400000e+001  1.507360e-001
      vertex  7.091570e-001 -2.400000e+001  1.507360e-001
      vertex  6.623204e-001 -2.400000e+001  2.948841e-001
    endloop
  endfacet
  facet normal  -0.000000e+000 -1.000000e+000  0.000000e+000
    outer loop
      vertex -7.091570e-001 -2.400000e+001  1.507360e-001
      vertex  6.623204e-001 -2.400000e+001  2.948841e-001
      vertex -6.623204e-001 -2.400000e+001  2.948841e-001
    endloop
  endfacet
  facet normal  0.000000e+000 -9.999999e-001  0.000000e+000
    outer loop
      vertex -6.623204e-001 -2.400000e+001  2.948841e-001
      vertex  6.623204e-001 -2.400000e+001  2.948841e-001
      vertex  5.865373e-001 -2.400000e+001  4.261443e-001
    endloop
  endfacet
  facet normal  -0.000000e+000 -1.000000e+000  0.000000e+000
    outer loop
      vertex -6.623204e-001 -2.400000e+001  2.948841e-001
      vertex  5.865373e-001 -2.400000e+001  4.261443e-001
      vertex -5.865373e-001 -2.400000e+001  4.261443e-001
    endloop
  endfacet
  facet normal  0.000000e+000 -1.000000e+000  0.000000e+000
    outer loop
      vertex -5.865373e-001 -2.400000e+001  4.261443e-001
      vertex  5.865373e-001 -2.400000e+001  4.261443e-001
      vertex  4.851197e-001 -2.400000e+001  5.387800e-001
    endloop
  endfacet
  facet normal  -0.000000e+000 -1.000000e+000  0.000000e+000
    outer loop
      vertex -5.865373e-001 -2.400000e+001  4.261443e-001
      vertex  4.851197e-001 -2.400000e+001  5.387800e-001
      vertex -4.851197e-001 -2.400000e+001  5.387800e-001
    endloop
  endfacet
  facet normal  0.000000e+000 -1.000000e+000  0.000000e+000
    outer loop
      vertex -4.851197e-001 -2.400000e+001  5.387800e-001
      vertex  4.851197e-001 -2.400000e+001  5.387800e-001
      vertex  3.625000e-001 -2.400000e+001  6.278684e-001
    endloop
  endfacet
  facet normal  -0.000000e+000 -1.000000e+000  0.000000e+000
    outer loop
      vertex -4.851197e-001 -2.400000e+001  5.387800e-001
      vertex  3.625000e-001 -2.400000e+001  6.278684e-001
      vertex -3.625000e-001 -2.400000e+001  6.278684e-001
    endloop
  endfacet
  facet normal  0.000000e+000 -1.000000e+000  0.000000e+000
    outer loop
      vertex -3.625000e-001 -2.400000e+001  6.278684e-001
      vertex  3.625000e-001 -2.400000e+001  6.278684e-001
      vertex  2.240373e-001 -2.400000e+001  6.895159e-001
    endloop
  endfacet
  facet normal  -0.000000e+000 -1.000000e+000  0.000000e+000
    outer loop
      vertex -3.625000e-001 -2.400000e+001  6.278684e-001
      vertex  2.240373e-001 -2.400000e+001  6.895159e-001
      vertex -2.240373e-001 -2.400000e+001  6.895159e-001
    endloop
  endfacet
  facet normal  0.000000e+000 -1.000000e+000  0.000000e+000
    outer loop
      vertex -2.240373e-001 -2.400000e+001  6.895159e-001
      vertex  2.240373e-001 -2.400000e+001  6.895159e-001
      vertex  7.578313e-002 -2.400000e+001  7.210284e-001
    endloop
  endfacet
  facet normal  -0.000000e+000 -9.999999e-001  0.000000e+000
    outer loop
      vertex -2.240373e-001 -2.400000e+001  6.895159e-001
      vertex  7.578313e-002 -2.400000e+001  7.210284e-001
      vertex -7.578313e-002 -2.400000e+001  7.210284e-001
    endloop
  endfacet
  facet normal  0.000000e+000 -9.999999e-001  0.000000e+000
    outer loop
      vertex  7.091570e-001 -2.400000e+001  1.507360e-001
      vertex -7.250000e-001 -2.400000e+001  0.000000e+000
      vertex  7.250000e-001 -2.400000e+001 -2.331807e-016
    endloop
  endfacet
  facet normal  -0.000000e+000 -9.999999e-001  0.000000e+000
    outer loop
      vertex  7.250000e-001 -2.400000e+001 -2.331807e-016
      vertex -7.250000e-001 -2.400000e+001  0.000000e+000
      vertex -7.091570e-001 -2.400000e+001 -1.507360e-001
    endloop
  endfacet
  facet normal  0.000000e+000 -1.000000e+000  0.000000e+000
    outer loop
      vertex  7.250000e-001 -2.400000e+001 -2.331807e-016
      vertex -7.091570e-001 -2.400000e+001 -1.507360e-001
      vertex  7.091570e-001 -2.400000e+001 -1.507360e-001
    endloop
  endfacet
  facet normal  -0.000000e+000 -9.999999e-001  0.000000e+000
    outer loop
      vertex  7.091570e-001 -2.400000e+001 -1.507360e-001
      vertex -7.091570e-001 -2.400000e+001 -1.507360e-001
      vertex -6.623204e-001 -2.400000e+001 -2.948841e-001
    endloop
  endfacet
  facet normal  0.000000e+000 -1.000000e+000  0.000000e+000
    outer loop
      vertex  7.091570e-001 -2.400000e+001 -1.507360e-001
      vertex -6.623204e-001 -2.400000e+001 -2.948841e-001
      vertex  6.623204e-001 -2.400000e+001 -2.948841e-001
    endloop
  endfacet
  facet normal  -0.000000e+000 -9.999999e-001  0.000000e+000
    outer loop
      vertex  6.623204e-001 -2.400000e+001 -2.948841e-001
      vertex -6.623204e-001 -2.400000e+001 -2.948841e-001
      vertex -5.865373e-001 -2.400000e+001 -4.261443e-001
    endloop
  endfacet
  facet normal  0.000000e+000 -1.000000e+000  0.000000e+000
    outer loop
      vertex  6.623204e-001 -2.400000e+001 -2.948841e-001
      vertex -5.865373e-001 -2.400000e+001 -4.261443e-001
      vertex  5.865373e-001 -2.400000e+001 -4.261443e-001
    endloop
  endfacet
  facet normal  -0.000000e+000 -1.000000e+000  0.000000e+000
    outer loop
      vertex  5.865373e-001 -2.400000e+001 -4.261443e-001
      vertex -5.865373e-001 -2.400000e+001 -4.261443e-001
      vertex -4.851197e-001 -2.400000e+001 -5.387800e-001
    endloop
  endfacet
  facet normal  0.000000e+000 -1.000000e+000  0.000000e+000
    outer loop
      vertex  5.865373e-001 -2.400000e+001 -4.261443e-001
      vertex -4.851197e-001 -2.400000e+001 -5.387800e-001
      vertex  4.851197e-001 -2.400000e+001 -5.387800e-001
    endloop
  endfacet
  facet normal  -0.000000e+000 -1.000000e+000  0.000000e+000
    outer loop
      vertex  4.851197e-001 -2.400000e+001 -5.387800e-001
      vertex -4.851197e-001 -2.400000e+001 -5.387800e-001
      vertex -3.625000e-001 -2.400000e+001 -6.278684e-001
    endloop
  endfacet
  facet normal  0.000000e+000 -1.000000e+000  0.000000e+000
    outer loop
      vertex  4.851197e-001 -2.400000e+001 -5.387800e-001
      vertex -3.625000e-001 -2.400000e+001 -6.278684e-001
      vertex  3.625000e-001 -2.400000e+001 -6.278684e-001
    endloop
  endfacet
  facet normal  -0.000000e+000 -1.000000e+000  0.000000e+000
    outer loop
      vertex  3.625000e-001 -2.400000e+001 -6.278684e-001
      vertex -3.625000e-001 -2.400000e+001 -6.278684e-001
      vertex -2.240373e-001 -2.400000e+001 -6.895159e-001
    endloop
  endfacet
  facet normal  0.000000e+000 -1.000000e+000  0.000000e+000
    outer loop
      vertex  3.625000e-001 -2.400000e+001 -6.278684e-001
      vertex -2.240373e-001 -2.400000e+001 -6.895159e-001
      vertex  2.240373e-001 -2.400000e+001 -6.895159e-001
    endloop
  endfacet
  facet normal  -0.000000e+000 -1.000000e+000  0.000000e+000
    outer loop
      vertex  2.240373e-001 -2.400000e+001 -6.895159e-001
      vertex -2.240373e-001 -2.400000e+001 -6.895159e-001
      vertex -7.578313e-002 -2.400000e+001 -7.210284e-001
    endloop
  endfacet
  facet normal  0.000000e+000 -9.999999e-001  0.000000e+000
    outer loop
      vertex  2.240373e-001 -2.400000e+001 -6.895159e-001
      vertex -7.578313e-002 -2.400000e+001 -7.210284e-001
      vertex  7.578313e-002 -2.400000e+001 -7.210284e-001
    endloop
  endfacet
  facet normal  0.000000e+000  9.999999e-001  0.000000e+000
    outer loop
      vertex -7.578313e-002  0.000000e+000  7.210284e-001
      vertex  7.578313e-002  0.000000e+000  7.210284e-001
      vertex -2.240373e-001  0.000000e+000  6.895159e-001
    endloop
  endfacet
  facet normal  0.000000e+000  1.000000e+000  0.000000e+000
    outer loop
      vertex -2.240373e-001  0.000000e+000  6.895159e-001
      vertex  7.578313e-002  0.000000e+000  7.210284e-001
      vertex  2.240373e-001  0.000000e+000  6.895159e-001
    endloop
  endfacet
  facet normal  0.000000e+000  1.000000e+000  0.000000e+000
    outer loop
      vertex -2.240373e-001  0.000000e+000  6.895159e-001
      vertex  2.240373e-001  0.000000e+000  6.895159e-001
      vertex -3.625000e-001  0.000000e+000  6.278684e-001
    endloop
  endfacet
  facet normal  0.000000e+000  1.000000e+000  0.000000e+000
    outer loop
      vertex -3.625000e-001  0.000000e+000  6.278684e-001
      vertex  2.240373e-001  0.000000e+000  6.895159e-001
      vertex  3.625000e-001  0.000000e+000  6.278684e-001
    endloop
  endfacet
  facet normal  0.000000e+000  1.000000e+000  0.000000e+000
    outer loop
      vertex -3.625000e-001  0.000000e+000  6.278684e-001
      vertex  3.625000e-001  0.000000e+000  6.278684e-001
      vertex -4.851197e-001  0.000000e+000  5.387800e-001
    endloop
  endfacet
  facet normal  0.000000e+000  1.000000e+000  0.000000e+000
    outer loop
      vertex -4.851197e-001  0.000000e+000  5.387800e-001
      vertex  3.625000e-001  0.000000e+000  6.278684e-001
      vertex  4.851197e-001  0.000000e+000  5.387800e-001
    endloop
  endfacet
  facet normal  0.000000e+000  1.000000e+000  0.000000e+000
    outer loop
      vertex -4.851197e-001  0.000000e+000  5.387800e-001
      vertex  4.851197e-001  0.000000e+000  5.387800e-001
      vertex -5.865373e-001  0.000000e+000  4.261443e-001
    endloop
  endfacet
  facet normal  0.000000e+000  1.000000e+000  0.000000e+000
    outer loop
      vertex -5.865373e-001  0.000000e+000  4.261443e-001
      vertex  4.851197e-001  0.000000e+000  5.387800e-001
      vertex  5.865373e-001  0.000000e+000  4.261443e-001
    endloop
  endfacet
  facet normal  0.000000e+000  1.000000e+000  0.000000e+000
    outer loop
      vertex -5.865373e-001  0.000000e+000  4.261443e-001
      vertex  5.865373e-001  0.000000e+000  4.261443e-001
      vertex -6.623204e-001  0.000000e+000  2.948841e-001
    endloop
  endfacet
  facet normal  0.000000e+000  9.999999e-001  0.000000e+000
    outer loop
      vertex -6.623204e-001  0.000000e+000  2.948841e-001
      vertex  5.865373e-001  0.000000e+000  4.261443e-001
      vertex  6.623204e-001  0.000000e+000  2.948841e-001
    endloop
  endfacet
  facet normal  0.000000e+000  1.000000e+000  0.000000e+000
    outer loop
      vertex -6.623204e-001  0.000000e+000  2.948841e-001
      vertex  6.623204e-001  0.000000e+000  2.948841e-001
      vertex -7.091570e-001  0.000000e+000  1.507360e-001
    endloop
  endfacet
  facet normal  0.000000e+000  9.999999e-001  0.000000e+000
    outer loop
      vertex -7.091570e-001  0.000000e+000  1.507360e-001
      vertex  6.623204e-001  0.000000e+000  2.948841e-001
      vertex  7.091570e-001  0.000000e+000  1.507360e-001
    endloop
  endfacet
  facet normal  0.000000e+000  1.000000e+000  0.000000e+000
    outer loop
      vertex -7.091570e-001  0.000000e+000  1.507360e-001
      vertex  7.091570e-001  0.000000e+000  1.507360e-001
      vertex -7.250000e-001  0.000000e+000  0.000000e+000
    endloop
  endfacet
  facet normal  -0.000000e+000  9.999999e-001  0.000000e+000
    outer loop
      vertex -7.250000e-001  0.000000e+000  0.000000e+000
      vertex  7.091570e-001  0.000000e+000  1.507360e-001
      vertex  7.250000e-001  0.000000e+000 -2.331807e-016
    endloop
  endfacet
  facet normal  0.000000e+000  9.999999e-001  0.000000e+000
    outer loop
      vertex -7.250000e-001  0.000000e+000  0.000000e+000
      vertex  7.250000e-001  0.000000e+000 -2.331807e-016
      vertex -7.091570e-001  0.000000e+000 -1.507360e-001
    endloop
  endfacet
  facet normal  0.000000e+000  1.000000e+000  0.000000e+000
    outer loop
      vertex -7.091570e-001  0.000000e+000 -1.507360e-001
      vertex  7.250000e-001  0.000000e+000 -2.331807e-016
      vertex  7.091570e-001  0.000000e+000 -1.507360e-001
    endloop
  endfacet
  facet normal  0.000000e+000  9.999999e-001  0.000000e+000
    outer loop
      vertex -7.091570e-001  0.000000e+000 -1.507360e-001
      vertex  7.091570e-001  0.000000e+000 -1.507360e-001
      vertex -6.623204e-001  0.000000e+000 -2.948841e-001
    endloop
  endfacet
  facet normal  0.000000e+000  1.000000e+000  0.000000e+000
    outer loop
      vertex -6.623204e-001  0.000000e+000 -2.948841e-001
      vertex  7.091570e-001  0.000000e+000 -1.507360e-001
      vertex  6.623204e-001  0.000000e+000 -2.948841e-001
    endloop
  endfacet
  facet normal  0.000000e+000  9.999999e-001  0.000000e+000
    outer loop
      vertex -6.623204e-001  0.000000e+000 -2.948841e-001
      vertex  6.623204e-001  0.000000e+000 -2.948841e-001
      vertex -5.865373e-001  0.000000e+000 -4.261443e-001
    endloop
  endfacet
  facet normal  0.000000e+000  1.000000e+000  0.000000e+000
    outer loop
      vertex -5.865373e-001  0.000000e+000 -4.261443e-001
      vertex  6.623204e-001  0.000000e+000 -2.948841e-001
      vertex  5.865373e-001  0.000000e+000 -4.261443e-001
    endloop
  endfacet
  facet normal  0.000000e+000  1.000000e+000  0.000000e+000
    outer loop
      vertex -5.865373e-001  0.000000e+000 -4.261443e-001
      vertex  5.865373e-001  0.000000e+000 -4.261443e-001
      vertex -4.851197e-001  0.000000e+000 -5.387800e-001
    endloop
  endfacet
  facet normal  0.000000e+000  1.000000e+000  0.000000e+000
    outer loop
      vertex -4.851197e-001  0.000000e+000 -5.387800e-001
      vertex  5.865373e-001  0.000000e+000 -4.261443e-001
      vertex  4.851197e-001  0.000000e+000 -5.387800e-001
    endloop
  endfacet
  facet normal  0.000000e+000  1.000000e+000  0.000000e+000
    outer loop
      vertex -4.851197e-001  0.000000e+000 -5.387800e-001
      vertex  4.851197e-001  0.000000e+000 -5.387800e-001
      vertex -3.625000e-001  0.000000e+000 -6.278684e-001
    endloop
  endfacet
  facet normal  0.000000e+000  1.000000e+000  0.000000e+000
    outer loop
      vertex -3.625000e-001  0.000000e+000 -6.278684e-001
      vertex  4.851197e-001  0.000000e+000 -5.387800e-001
      vertex  3.625000e-001  0.000000e+000 -6.278684e-001
    endloop
  endfacet
  facet normal  0.000000e+000  1.000000e+000  0.000000e+000
    outer loop
      vertex -3.625000e-001  0.000000e+000 -6.278684e-001
      vertex  3.625000e-001  0.000000e+000 -6.278684e-001
      vertex -2.240373e-001  0.000000e+000 -6.895159e-001
    endloop
  endfacet
  facet normal  0.000000e+000  1.000000e+000  0.000000e+000
    outer loop
      vertex -2.240373e-001  0.000000e+000 -6.895159e-001
      vertex  3.625000e-001  0.000000e+000 -6.278684e-001
      vertex  2.240373e-001  0.000000e+000 -6.895159e-001
    endloop
  endfacet
  facet normal  0.000000e+000  1.000000e+000  0.000000e+000
    outer loop
      vertex -2.240373e-001  0.000000e+000 -6.895159e-001
      vertex  2.240373e-001  0.000000e+000 -6.895159e-001
      vertex -7.578313e-002  0.000000e+000 -7.210284e-001
    endloop
  endfacet
  facet normal  0.000000e+000  9.999999e-001  0.000000e+000
    outer loop
      vertex -7.578313e-002  0.000000e+000 -7.210284e-001
      vertex  2.240373e-001  0.000000e+000 -6.895159e-001
      vertex  7.578313e-002  0.000000e+000 -7.210284e-001
    endloop
  endfacet
endsolid CATIA STL
